<?xml version="1.0" encoding="utf-8"?>
<!-- Generator: Adobe Illustrator 16.0.0, SVG Export Plug-In . SVG Version: 6.00 Build 0)  -->
<!DOCTYPE svg PUBLIC "-//W3C//DTD SVG 1.1//EN" "http://www.w3.org/Graphics/SVG/1.1/DTD/svg11.dtd">
<svg version="1.1" id="Layer_1" xmlns="http://www.w3.org/2000/svg" xmlns:xlink="http://www.w3.org/1999/xlink" x="0px" y="0px"
	 width="1725px" height="1050px" viewBox="0 0 1725 1050" enable-background="new 0 0 1725 1050" xml:space="preserve">
<pattern  x="-97.5" y="-15" width="100" height="100" patternUnits="userSpaceOnUse" id="Hololense-bg" viewBox="55.414 -124.955 100 100" overflow="visible">
	<g>
		<polygon fill="none" points="55.414,-124.955 155.414,-124.955 155.414,-24.955 55.414,-24.955 		"/>
		<g>
			<g>
				<polygon fill="none" stroke="#578EFF" stroke-width="0.5" stroke-miterlimit="10" points="161.873,-0.25 150.273,-12.546 
					161.873,-24.842 200.54,-24.842 212.141,-12.546 200.54,-0.25 				"/>
			</g>
		</g>
		<g>
			<g>
				<polygon fill="none" stroke="#578EFF" stroke-width="0.5" stroke-miterlimit="10" points="61.873,-0.25 50.273,-12.546 
					61.873,-24.842 100.54,-24.842 112.141,-12.546 100.54,-0.25 				"/>
			</g>
		</g>
		<g>
			<g>
				<polygon fill="none" stroke="#578EFF" stroke-width="0.5" stroke-miterlimit="10" points="161.873,-100.25 150.273,-112.546 
					161.873,-124.842 200.54,-124.842 212.141,-112.546 200.54,-100.25 				"/>
				<polygon fill="none" stroke="#578EFF" stroke-width="0.5" stroke-miterlimit="10" points="163.226,-101.11 152.438,-112.546 
					163.226,-123.981 199.188,-123.981 209.975,-112.546 199.188,-101.11 				"/>
			</g>
			<g>
				<polygon fill="none" stroke="#578EFF" stroke-width="0.5" stroke-miterlimit="10" points="161.873,-75.526 150.273,-87.822 
					161.873,-100.119 200.54,-100.119 212.141,-87.822 200.54,-75.526 				"/>
				<polygon fill="none" stroke="#578EFF" stroke-width="0.5" stroke-miterlimit="10" points="163.226,-76.387 152.438,-87.822 
					163.226,-99.257 199.188,-99.257 209.975,-87.822 199.188,-76.387 				"/>
			</g>
			<g>
				<polygon fill="none" stroke="#578EFF" stroke-width="0.5" stroke-miterlimit="10" points="161.873,-50.802 150.273,-63.099 
					161.873,-75.395 200.54,-75.395 212.141,-63.099 200.54,-50.802 				"/>
				<polygon fill="none" stroke="#578EFF" stroke-width="0.5" stroke-miterlimit="10" points="163.226,-51.664 152.438,-63.099 
					163.226,-74.534 199.188,-74.534 209.975,-63.099 199.188,-51.664 				"/>
			</g>
			<g>
				<polygon fill="none" stroke="#578EFF" stroke-width="0.5" stroke-miterlimit="10" points="161.873,-26.079 150.273,-38.375 
					161.873,-50.67 200.54,-50.67 212.141,-38.375 200.54,-26.079 				"/>
				<polygon fill="none" stroke="#578EFF" stroke-width="0.5" stroke-miterlimit="10" points="163.226,-26.939 152.438,-38.375 
					163.226,-49.81 199.188,-49.81 209.975,-38.375 199.188,-26.939 				"/>
			</g>
		</g>
		<g>
			<g>
				<polygon fill="none" stroke="#578EFF" stroke-width="0.5" stroke-miterlimit="10" points="61.873,-100.25 50.273,-112.546 
					61.873,-124.842 100.54,-124.842 112.141,-112.546 100.54,-100.25 				"/>
				<polygon fill="none" stroke="#578EFF" stroke-width="0.5" stroke-miterlimit="10" points="63.226,-101.11 52.438,-112.546 
					63.226,-123.981 99.188,-123.981 109.975,-112.546 99.188,-101.11 				"/>
			</g>
			<g>
				<polygon fill="none" stroke="#578EFF" stroke-width="0.5" stroke-miterlimit="10" points="111.943,-87.954 100.343,-100.25 
					111.943,-112.546 150.61,-112.546 162.21,-100.25 150.61,-87.954 				"/>
				<polygon fill="none" stroke="#578EFF" stroke-width="0.5" stroke-miterlimit="10" points="113.297,-88.815 102.508,-100.25 
					113.297,-111.685 149.257,-111.685 160.045,-100.25 149.257,-88.815 				"/>
			</g>
			<g>
				<polygon fill="none" stroke="#578EFF" stroke-width="0.5" stroke-miterlimit="10" points="61.873,-75.526 50.273,-87.822 
					61.873,-100.119 100.54,-100.119 112.141,-87.822 100.54,-75.526 				"/>
				<polygon fill="none" stroke="#578EFF" stroke-width="0.5" stroke-miterlimit="10" points="63.226,-76.387 52.438,-87.822 
					63.226,-99.257 99.188,-99.257 109.975,-87.822 99.188,-76.387 				"/>
			</g>
			<g>
				<polygon fill="none" stroke="#578EFF" stroke-width="0.5" stroke-miterlimit="10" points="111.943,-63.23 100.343,-75.526 
					111.943,-87.822 150.61,-87.822 162.21,-75.526 150.61,-63.23 				"/>
				<polygon fill="none" stroke="#578EFF" stroke-width="0.5" stroke-miterlimit="10" points="113.297,-64.091 102.508,-75.526 
					113.297,-86.961 149.257,-86.961 160.044,-75.526 149.257,-64.091 				"/>
			</g>
			<g>
				<polygon fill="none" stroke="#578EFF" stroke-width="0.5" stroke-miterlimit="10" points="61.873,-50.802 50.273,-63.099 
					61.873,-75.395 100.54,-75.395 112.141,-63.099 100.54,-50.802 				"/>
				<polygon fill="none" stroke="#578EFF" stroke-width="0.5" stroke-miterlimit="10" points="63.226,-51.664 52.438,-63.099 
					63.226,-74.534 99.188,-74.534 109.975,-63.099 99.188,-51.664 				"/>
			</g>
			<g>
				<polygon fill="none" stroke="#578EFF" stroke-width="0.5" stroke-miterlimit="10" points="111.943,-38.506 100.343,-50.802 
					111.943,-63.098 150.61,-63.098 162.21,-50.802 150.61,-38.506 				"/>
				<polygon fill="none" stroke="#578EFF" stroke-width="0.5" stroke-miterlimit="10" points="113.297,-39.367 102.508,-50.802 
					113.297,-62.237 149.257,-62.237 160.044,-50.802 149.257,-39.367 				"/>
			</g>
			<g>
				<polygon fill="none" stroke="#578EFF" stroke-width="0.5" stroke-miterlimit="10" points="61.873,-26.079 50.273,-38.375 
					61.873,-50.67 100.54,-50.67 112.141,-38.375 100.54,-26.079 				"/>
				<polygon fill="none" stroke="#578EFF" stroke-width="0.5" stroke-miterlimit="10" points="63.226,-26.939 52.438,-38.375 
					63.226,-49.81 99.188,-49.81 109.975,-38.375 99.188,-26.939 				"/>
			</g>
			<g>
				<polygon fill="none" stroke="#578EFF" stroke-width="0.5" stroke-miterlimit="10" points="111.943,-13.782 100.343,-26.079 
					111.943,-38.375 150.61,-38.375 162.21,-26.079 150.61,-13.782 				"/>
				<polygon fill="none" stroke="#578EFF" stroke-width="0.5" stroke-miterlimit="10" points="113.297,-14.644 102.508,-26.079 
					113.297,-37.514 149.257,-37.514 160.045,-26.079 149.257,-14.644 				"/>
			</g>
		</g>
		<g>
			<g>
				<polygon fill="none" stroke="#578EFF" stroke-width="0.5" stroke-miterlimit="10" points="11.943,-87.954 0.343,-100.25 
					11.943,-112.546 50.61,-112.546 62.21,-100.25 50.61,-87.954 				"/>
				<polygon fill="none" stroke="#578EFF" stroke-width="0.5" stroke-miterlimit="10" points="13.297,-88.815 2.508,-100.25 
					13.297,-111.685 49.257,-111.685 60.045,-100.25 49.257,-88.815 				"/>
			</g>
			<g>
				<polygon fill="none" stroke="#578EFF" stroke-width="0.5" stroke-miterlimit="10" points="11.943,-63.23 0.343,-75.526 
					11.943,-87.822 50.61,-87.822 62.21,-75.526 50.61,-63.23 				"/>
				<polygon fill="none" stroke="#578EFF" stroke-width="0.5" stroke-miterlimit="10" points="13.297,-64.091 2.508,-75.526 
					13.297,-86.961 49.257,-86.961 60.044,-75.526 49.257,-64.091 				"/>
			</g>
			<g>
				<polygon fill="none" stroke="#578EFF" stroke-width="0.5" stroke-miterlimit="10" points="11.943,-38.506 0.343,-50.802 
					11.943,-63.098 50.61,-63.098 62.21,-50.802 50.61,-38.506 				"/>
				<polygon fill="none" stroke="#578EFF" stroke-width="0.5" stroke-miterlimit="10" points="13.297,-39.367 2.508,-50.802 
					13.297,-62.237 49.257,-62.237 60.044,-50.802 49.257,-39.367 				"/>
			</g>
			<g>
				<polygon fill="none" stroke="#578EFF" stroke-width="0.5" stroke-miterlimit="10" points="11.943,-13.782 0.343,-26.079 
					11.943,-38.375 50.61,-38.375 62.21,-26.079 50.61,-13.782 				"/>
				<polygon fill="none" stroke="#578EFF" stroke-width="0.5" stroke-miterlimit="10" points="13.297,-14.644 2.508,-26.079 
					13.297,-37.514 49.257,-37.514 60.045,-26.079 49.257,-14.644 				"/>
			</g>
		</g>
		<g>
			<g>
				<polygon fill="none" stroke="#578EFF" stroke-width="0.5" stroke-miterlimit="10" points="111.943,-113.782 100.343,-126.079 
					111.943,-138.375 150.61,-138.375 162.21,-126.079 150.61,-113.782 				"/>
				<polygon fill="none" stroke="#578EFF" stroke-width="0.5" stroke-miterlimit="10" points="113.297,-114.644 102.508,-126.079 
					113.297,-137.514 149.257,-137.514 160.045,-126.079 149.257,-114.644 				"/>
			</g>
		</g>
		<g>
			<g>
				<polygon fill="none" stroke="#578EFF" stroke-width="0.5" stroke-miterlimit="10" points="11.943,-113.782 0.343,-126.079 
					11.943,-138.375 50.61,-138.375 62.21,-126.079 50.61,-113.782 				"/>
				<polygon fill="none" stroke="#578EFF" stroke-width="0.5" stroke-miterlimit="10" points="13.297,-114.644 2.508,-126.079 
					13.297,-137.514 49.257,-137.514 60.045,-126.079 49.257,-114.644 				"/>
			</g>
		</g>
	</g>
</pattern>
<g>
	<pattern  id="SVGID_1_" xlink:href="#Hololense-bg" patternTransform="matrix(1 0 0 1 15.25 -9)">
	</pattern>
	<polygon opacity="0.3" fill="url(#SVGID_1_)" points="1592.188,871.111 863.5,1047.74 134.812,871.111 185.5,611.674 3.5,364.134 
		134.812,192.423 703.5,80.948 863.5,2.26 1023.5,80.948 1592.188,192.423 1721.5,364.134 1542.322,611.674 	"/>
	<polygon opacity="0.5" fill="#698CDC" points="1592.188,871.111 863.5,1047.74 134.812,871.111 185.5,611.674 3.5,364.134 
		134.812,192.423 703.5,80.948 863.5,2.26 1023.5,80.948 1592.188,192.423 1721.5,364.134 1542.322,611.674 	"/>
	<g>
		<g>
			<g>
				<g>
					<g>
						<g>
							<path fill="#6C9CFF" d="M1519.993,741.942c1.867,9.417,3.144,17.701,2.324,14.181c4.062,19.134,3.72,19.626,4.914,21.977
								c2.722,12.259,4.762,25.502,1.775,11.535l7.271,35.457l-3.974-21.272c1.708,5.674,6.349,33.993,8.338,40.594l-7.452-38.461
								l0.566,1.885c-1.896-8.719-5.078-25.751-6.135-31.699c0.278,0.916,0.322,0.289,1.645,7.071
								c-8.883-46.459-3.447-12.312-11.054-50.817C1518.691,734.805,1519.258,737.798,1519.993,741.942z"/>
							<path fill="#6C9CFF" d="M1513.867,702.203l-3.861-16.06l-5.032-27.221c-0.317-0.259-4.331-20.021-1.981-6.57
								c0.544,2.614,1.616,7.781,2.397,11.97c-1.14-2.926-7.227-36.095-6.255-27.998c4.279,21.47,4.792,24.793,7.788,37.938
								c3.735,19.719,6.366,34.096,7.932,43.337c1.209,5.834,1.709,6.591,3.206,14.011c-0.323-1.644-0.62-3.154-0.992-5.044
								l0.684-0.963c-1.368-6.166-2.411-12.042-3.75-18.917l7.095,31.632c-1.188-10.411-7.658-41.588-9.733-54.142
								C1513.636,699.806,1508.642,671.906,1513.867,702.203z"/>
							<path fill="#6C9CFF" d="M1518.061,731.61c0.04,0.205,0.105,0.545,0.151,0.781
								C1518.166,732.155,1518.101,731.815,1518.061,731.61z"/>
							<path fill="#6C9CFF" d="M193.822,543.091c4.093,5.541,5.458,7.058,6.129,7.799l-45.961-62.484
								c1.258,2.089,14.269,20.254,5.318,8.305c3.745,5.511,15.928,21.724,17.914,23.915l-3.605-4.327
								c10.939,14.139,17.477,24.484,10.367,15.249l0.896,1.212l30.679,38.882C204.872,556.94,206.8,560.707,193.822,543.091z"/>
							<path fill="#6C9CFF" d="M1426.74,870.252c-9.75,2.443-10.931,2.813-9.803,2.625
								C1420.423,871.968,1423.733,871.091,1426.74,870.252z"/>
							<path fill="#6C9CFF" d="M222.73,580.728l9.609,12.18C228.547,587.99,225.163,583.708,222.73,580.728z"/>
							<path fill="#6C9CFF" d="M152.641,498.936c-0.042-0.009-0.161-0.129,0.051,0.223l4.341,5.449
								c-0.062-0.084-0.081-0.109-0.105-0.144C155.355,502.437,153.943,500.616,152.641,498.936z"/>
							<path fill="#6C9CFF" d="M268.313,858.6c1.621,0.381,3.017,0.708,4.954,1.163C271.462,859.339,269.832,858.956,268.313,858.6z
								"/>
							<path fill="#6C9CFF" d="M99.294,322.97l-20.546,27.702c2.602-3.796-7.447,9.462-3.256,3.521
								c-1.565,2.111-8.976,11.957-6.836,9.362l4.262-5.598c-3.218,4.561-4.799,6.915-6.013,8.754
								c-0.076,0.115-0.15,0.228-0.224,0.339c-0.096,0.141-0.191,0.281-0.284,0.418c-0.271,0.384-0.535,0.76-0.798,1.134
								c-0.521,0.738-1.035,1.467-1.576,2.235c-1.075,1.5-2.259,3.15-3.821,5.329c0.757,0.974,1.704,2.192,2.898,3.729
								c1.103,1.44,2.434,3.18,4.049,5.289c1.937,2.519,4.552,5.921,8.105,10.543c-2.414-3.441-4.547-6.431-6.468-9.083
								c-1.257-1.718-2.438-3.331-3.555-4.856c-1.465-1.978-2.846-3.841-4.16-5.614c7.64-10.105,9.054-12.273,12.521-17.096
								c2.013-2.691,3.7-4.947,5.405-7.227l16.643-23.373L99.294,322.97z"/>
							<path fill="#6C9CFF" d="M960.645,987.316l-0.354,0.142C960.623,987.358,960.68,987.326,960.645,987.316z"/>
							<path fill="#6C9CFF" d="M958.879,988.031l1.412-0.573C958.517,988.003,951.644,989.78,958.879,988.031z"/>
							<path fill="#6C9CFF" d="M218.991,576.407c0.384,0.303,1.69,1.812,3.739,4.32l-7.171-9.087
								C216.52,572.975,217.786,574.733,218.991,576.407z"/>
							<path fill="#6C9CFF" d="M202.169,556.107l-17.29-23.349l-6.637-8.414C184.934,533.227,192.757,543.612,202.169,556.107z"/>
							<path fill="#6C9CFF" d="M223.814,847.391c58.51,14.071-14.561-2.683,12.264,4.023c16.262,3.842,22.082,4.852,32.235,7.186
								c-46.465-10.919,6.591,0.273-40.241-10.865c6.821,0.926,33.921,7.43,49.749,11.463c17.808,5.018-15.817-3.32-20.044-3.658
								c18.799,4.442,15.521,3.521,23.577,5.082c29.439,7.299,61.185,13.97,78.565,19.154c21.372,5.025,20.044,4.368,32.399,6.994
								c2.614-0.116-31.645-8.064-39.415-10.539c1.624,0.457,4.789,1.352,3.839,1.227l-18.411-4.621
								c17.451,4.492-2.604,0.119-11.978-2.095c-6.811-1.635-20.351-4.884-18.441-4.628l10.344,2.346
								c-13.214-3.439-29.398-6.578-43.316-10.358c-0.694-0.337,4.625,0.873,5.453,0.97c-15.817-3.321-30.95-7.021-54.272-12.311
								l13.642,2.562c-5.388-1.069-12.691-2.69-21.057-4.636c-4.18-0.989-8.629-2.042-13.241-3.134
								c-2.178-0.526-4.395-1.062-6.637-1.604c-0.299-0.077-0.602-0.155-0.906-0.234c2.489-12.076,5.066-24.58,7.234-35.1
								c-0.759,3.244-1.994,9.115-1.439,5.555c3.211-17.337,6.251-30.312,5.059-22.224c2.714-17.018,13.079-64.308,16.815-87.494
								l7.569-47.233l3.785-23.616l1.892-11.809l0.946-5.904l0.537-3.277c0.259-1.501,0.517-3.001,1.933-4.762l-3.348-3.918
								c-0.625-0.745-0.881-0.987-1.253-1.388l-1.062-1.127l-4.25-4.511c1.18,1.541,2.399,3.133,3.649,4.765
								c1.588,2.118,3.214,4.287,4.868,6.492c-0.047,0.248-0.097,0.509-0.146,0.771c-0.403,1.688-0.783,3.283-1.13,4.738
								c-0.251,0.988-0.479,1.883-0.674,2.651c-0.392,1.538-0.663,2.572-0.784,2.85c-0.121,0.278-0.091-0.201,0.119-1.69
								c0.111-0.743,0.261-1.74,0.454-3.022c0.122-0.751,0.257-1.584,0.407-2.506c0.181-1.073,0.379-2.249,0.595-3.532
								c-0.303-0.389-0.806-1.033-1.334-1.71c0.517,0.678,1.007,1.32,1.308,1.716c-0.22,1.25-0.422,2.395-0.608,3.451
								c-0.154,0.913-0.295,1.75-0.425,2.524c-0.204,1.317-0.374,2.422-0.526,3.409c-0.286,1.979-0.503,3.487-0.764,5.291
								c-0.538,3.604-1.342,8.374-3.671,20.362c1.593-9.823,1.36-12.429-3.371,11.396c-11.021,59.717-16.967,99.561-26.937,155.397
								c-0.291,0.646-1.398,5.829-2.905,13.245c-1.186,5.937-2.727,13.651-4.257,21.311c7.892,1.937,15.713,3.856,21.462,5.269
								c-2.952-0.521-6.885-1.329-11.479-2.332c-2.294-0.512-4.757-1.061-7.346-1.639c-1.118-0.237-2.29-0.487-3.5-0.745
								c0.145-0.839,0.294-1.702,0.445-2.579c0.37-1.976,0.746-3.983,1.125-6.002c-0.431,2.171-0.962,4.845-1.723,8.68
								c6.6,1.612,15.716,3.84,23.092,5.642L223.814,847.391z"/>
							<path fill="#6C9CFF" d="M214.214,740.664c-0.32,1.484-0.651,3.02-0.991,4.596
								C213.428,744.426,213.728,743.055,214.214,740.664z"/>
							<path fill="#6C9CFF" d="M197.9,827.808c0.022-0.209-0.006-0.14-0.012-0.216c-0.323,1.719-0.646,3.437-0.977,5.196
								C197.26,831.032,197.653,829.051,197.9,827.808z"/>
							<path fill="#6C9CFF" d="M226.53,588.524c-2.228-2.833-3.878-4.932-6.105-7.765c1.344,1.767,3.031,3.982,4.655,6.115
								C226.646,588.895,227.418,589.833,226.53,588.524z"/>
							<path fill="#6C9CFF" d="M220.029,578.23l1.303,1.433c-0.905-1.258-1.54-2.142-2.341-3.256
								C218.656,576.134,218.85,576.551,220.029,578.23z"/>
							<path fill="#6C9CFF" d="M446.26,905.861l5.631,1.255C448.512,906.306,447.046,905.995,446.26,905.861z"/>
							<path fill="#6C9CFF" d="M288.767,863.989c-20.351-4.884-2.604,0.12-31.378-6.852l8.434,2.091
								c-9.53-2.162-22.347-5.221-35.786-8.466c-12.17-2.954-24.912-6.047-35.795-8.688c0.222-1.141,0.426-2.194,0.624-3.209
								c0.004,0.357,0.125,0.047,0.295-0.547c0.027-0.069,0.128-0.518,0.21-0.87c0.086-0.376,0.179-0.782,0.275-1.208
								c0.192-0.852,0.401-1.782,0.611-2.713c0.838-3.723,1.693-7.428,1.631-5.936c3.204-16.953,6.382-33.741,7.629-42.555
								c2.2-10.462,4.911-26.477,7.706-39.777c-1.369,5.579,2.803-19.165-3.211,13.357c0.475-2.627,0.093-0.995,0.561-3.592
								c-4.459,20.837-5.463,29.346-8.974,47.359c-2.368,10.717,3.014-17.695,0.922-7.554c-1.218,6.617-2.936,15.426-4.723,24.53
								c-1.577,8.085-3.205,16.434-4.554,23.352c1.691,0.389,3.26,0.75,4.655,1.07c2.253,0.502,4.227,0.942,5.84,1.302
								c3.254,0.69,5.075,0.986,4.82,0.709c16.225,3.859,18.411,4.619,23.2,5.972c12.948,2.582,36.709,8.461,57.245,13.52
								c10.268,2.528,19.729,4.853,26.63,6.457c6.9,1.604,11.239,2.489,11.262,2.139c-9.374-2.216-24.618-5.941-38.424-8.983
								L288.767,863.989z"/>
							<path fill="#6C9CFF" d="M235.299,621.096c-0.251,1.264-0.586,2.947-0.794,3.994
								C234.739,623.909,235.031,622.441,235.299,621.096z"/>
							<path fill="#6C9CFF" d="M94.189,401.647l5.913,6.517c29.694,40.022,40.163,54.689,66.002,89.774
								c1.872,2.756-1.323-1.458-2.942-3.593c18.23,24.619,45.228,61.659,58.772,79.38c5.768,7.856,20.694,28.642,14.743,20.997
								c0.782,1.03,1.596,2.101,2.432,3.201c1.378,1.849,2.795,3.748,4.239,5.683c-0.632,3.263-1.284,6.627-1.937,10.001
								c-0.176,0.399-0.052-0.479,0.204-1.925c0.414-2.175,0.991-5.212,1.527-8.03c-1.406-1.888-2.736-3.673-3.731-5.009
								c-0.63-0.82-0.989-1.252-1.083-1.288c2.23,3.065,3.674,5.05,4.614,6.342c-0.291,1.487-0.458,2.412-0.554,3.132
								c0.27-1.563,0.413-2.52,0.479-3.114c-1.447-1.679-0.419,0.13-2.697-2.635c-0.475-0.593-1.139-1.421-2.076-2.59
								c-0.653-0.818-1.484-1.885-2.545-3.275c-2.122-2.782-5.165-6.861-9.557-12.843c-7.172-11.035,14.012,18.91,10.091,12.164
								c-6.663-9.071-6.148-7.825-6.801-8.54c-8.481-11.567-8.088-11.389-7.482-10.886c-3.465-4.274-13.859-19.021-18.673-24.903
								c-16.574-22.433,1.405,0.851-9.393-13.82l-6.903-7.958l-17.812-24.497c-26.212-35.149,2.535,5.92-27.539-34.174
								c4.257,5.044-7.051-11.592-20.726-30.489c8.292,11.225,24.018,31.682,34.488,46.347
								c-14.51-20.856,20.771,28.117,13.576,17.047c-7.726-9.9-20.162-26.733-29.673-39.998l3.232,4.264
								c-10.21-14.038-18.707-24.099-32.624-43.599c-7.073-9.574-5.559-7.919-4.159-6.35c-3.035-4.019-5.909-7.825-8.027-10.629
								c-1.046-1.412-1.905-2.571-2.504-3.379C94.473,402.155,94.156,401.682,94.189,401.647z M109.693,422.436l9.365,12.879
								C116.933,432.187,113.412,427.408,109.693,422.436z"/>
							<path fill="#6C9CFF" d="M1566.484,507.687c-0.945,1.268-2.034,2.728-2.892,3.877
								C1564.245,510.731,1565.333,509.257,1566.484,507.687z"/>
							<path fill="#6C9CFF" d="M528.73,146.696l9.057-1.747C534.25,145.631,531.352,146.19,528.73,146.696z"/>
							<path fill="#6C9CFF" d="M728.121,100.348l12.004-6.124C735.358,96.582,731.653,98.492,728.121,100.348z"/>
							<path fill="#6C9CFF" d="M1631.019,418.63l0.27-0.361c0.429-0.62,0.757-1.094,1.209-1.748L1631.019,418.63z"/>
							<path fill="#6C9CFF" d="M1113.396,129.256c2,0.465,4.247,0.972,7.33,1.627
								C1120.373,130.728,1117.631,130.129,1113.396,129.256z"/>
							<path fill="#6C9CFF" d="M725.911,101.476c0.313-0.146,0.493-0.23,0.74-0.346c0.463-0.246,0.971-0.516,1.471-0.782
								L725.911,101.476z"/>
							<path fill="#6C9CFF" d="M438.77,161.811c-1.937,0.408-3.698,0.78-5.778,1.218C435.721,162.478,437.39,162.118,438.77,161.811
								z"/>
							<path fill="#6C9CFF" d="M451.992,161.667c-2.08,0.439-4.067,0.859-5.614,1.187L451.992,161.667z"/>
							<path fill="#6C9CFF" d="M154.079,254.142l-7.446,9.938C150.33,259.222,152.505,256.299,154.079,254.142z"/>
							<path fill="#6C9CFF" d="M419.635,167.445c-0.7,0.181-1.4,0.363-1.868,0.484C419.447,167.572,420.239,167.366,419.635,167.445
								z"/>
							<path fill="#6C9CFF" d="M1518.171,570.126c0.165-0.229,0.342-0.477,0.439-0.612l0.104-0.312L1518.171,570.126z"/>
							<path fill="#6C9CFF" d="M1501.467,595.309c-2.041,2.859-4.167,5.836-6.257,8.764c1.155-1.605,2.296-3.188,3.354-4.66
								C1499.637,597.896,1500.627,596.496,1501.467,595.309z"/>
							<path fill="#6C9CFF" d="M1290.143,165.292c3.202,0.752,10.746,2.381,7.185,1.825
								C1303.536,168.153,1303.207,167.652,1290.143,165.292z"/>
							<path fill="#6C9CFF" d="M1549.367,517.979c-1.067,1.67-2.438,3.714-3.818,5.766
								C1548.145,519.95,1550.425,516.625,1549.367,517.979z"/>
							<path fill="#6C9CFF" d="M1545.549,523.745c-1.279,1.878-2.647,3.886-3.792,5.565
								C1543.09,527.354,1544.369,525.477,1545.549,523.745z"/>
							<path fill="#6C9CFF" d="M1206.711,156.105c-0.79-0.214-2.023-0.505-3.706-0.85
								C1203.477,155.465,1204.817,155.753,1206.711,156.105z"/>
							<path fill="#6C9CFF" d="M1494.703,610.278c0.568,1.885,9.953,48.386,2.523,9.185c0.908,1.393,5.117,25.082,7.278,35.499
								c-1.313-7.615,1.121,3.696,0.899,1.352c-1.07-5.167-2.432-11.292-4.034-19.864c-0.475-3.992,2.215,8.967,4.061,19.134
								c-2.077-12.564,3.538,15.771,0.388-1.972c-1.867-9.377-3.598-18.07-5.226-26.247c-0.823-4.086-1.621-8.043-2.396-11.892
								c-0.392-1.924-0.777-3.82-1.158-5.691c-0.164-0.792-0.327-1.579-0.488-2.36c-0.085-0.379-0.17-0.756-0.254-1.13
								c3.91-5.625,7.629-10.976,11.251-16.187c3.989-5.774,7.841-11.416,11.652-17.076c-7.748,10.821-16.078,22.455-23.69,33.088
								c0.625,3.302,1.233,6.513,1.815,9.585c0.664,3.636,1.298,7.107,1.893,10.362l-1.964-7.331
								c-0.806-4.624-1.531-8.79-2.216-12.721c1.575-2.16,3.085-4.23,4.577-6.277c1.778-2.476,3.537-4.922,5.331-7.418
								c3.593-4.989,7.33-10.179,11.665-16.199c-7.298,9.941-14.595,19.883-21.805,29.843l0.297,1.872l0.532,3.099
								c1.652,9.718,1.927,11.864,1.419,9.723c-0.254-1.07-0.703-3.214-1.274-6.019c-0.501-2.487-1.119-5.56-1.783-8.854
								c0.385-0.542,0.797-1.123,1.214-1.709c-0.434,0.592-0.856,1.169-1.246,1.701c0.161,0.923,0.307,1.754,0.422,2.418
								C1494.553,609.166,1494.666,609.897,1494.703,610.278z"/>
							<path fill="#6C9CFF" d="M1503.747,583.905l-0.454,0.602c-0.372,0.546-0.831,1.221-1.067,1.567L1503.747,583.905z"/>
							<path fill="#6C9CFF" d="M164.216,259.008l-2.183,3.194C163.918,259.584,164.471,258.755,164.216,259.008z"/>
							<path fill="#6C9CFF" d="M1521.609,563.723l-0.019,0.025C1521.764,563.498,1521.807,563.439,1521.609,563.723z"/>
							<path fill="#6C9CFF" d="M237.361,213.322c-0.131,0.038-0.263,0.077-0.495,0.145
								C237.203,213.384,237.2,213.368,237.361,213.322z"/>
							<path fill="#6C9CFF" d="M260.317,196.869c-0.18,0.01-0.235-0.004-0.651,0.052
								C257.658,197.346,258.639,197.18,260.317,196.869z"/>
							<path fill="#6C9CFF" d="M237.423,213.258c0.003,0.016,0.068,0.02-0.062,0.064C237.43,213.29,237.591,213.241,237.423,213.258
								z"/>
							<path fill="#6C9CFF" d="M695.623,121.406c0,0-1.463,0.214-3.765,0.551C690.984,122.179,691.879,122.064,695.623,121.406z"/>
							<path fill="#6C9CFF" d="M604.945,138.36c-0.579,0.092-0.921,0.146-1.666,0.265L604.945,138.36z"/>
							<path fill="#6C9CFF" d="M1269.203,158.69c-4.482-0.866-7.843-1.516-10.681-2.064
								C1261.787,157.28,1265.322,157.971,1269.203,158.69z"/>
							<path fill="#6C9CFF" d="M236.867,213.467c-0.934,0.241-2.269,0.564-4.474,1.07
								C234.823,213.981,236.106,213.669,236.867,213.467z"/>
							<path fill="#6C9CFF" d="M823.136,61.795c-0.874,0.453-1.692,0.877-2.52,1.306c0.512-0.241,1.023-0.482,1.525-0.719
								L823.136,61.795z"/>
							<path fill="#6C9CFF" d="M865.935,43.662c-1.262-0.557-1.876-0.793-2.51-1.045c-0.087,0.049-0.141,0.079-0.195,0.109
								c0.06-0.03,0.119-0.061,0.195-0.099c1.815,0.871,3.816,1.831,5.934,2.848c2.258,1.098,4.641,2.256,7.075,3.439
								c4.864,2.375,9.935,4.852,14.627,7.143c9.389,4.573,17.283,8.363,19.08,8.925c-5.239-2.561-32.211-16.205-27.439-14.236
								c-2.868-1.368-6.081-2.948-9.358-4.582c-3.329-1.673-6.731-3.384-9.918-4.985c-2.885,1.384-5.596,2.684-7.934,3.806
								c-2.286,1.103-4.203,2.04-5.552,2.728c17.783-8.393,2.123-0.5-9.703,5.534c-10.907,5.176,1.833-1.421-7.543,3.071
								l-25.037,12.384l21.867-10.669l-6.387,3.761c0.8-0.415,1.348-0.699,2.204-1.143c17.908-8.948,19.226-9.385,20.211-9.662
								c0.492-0.138,0.901-0.237,3.26-1.339c1.179-0.551,2.845-1.353,5.252-2.537c2.318-1.153,5.357-2.666,9.362-4.658
								C864.097,42.779,864.991,43.208,865.935,43.662z"/>
							<path fill="#6C9CFF" d="M863.23,42.726c-2.138,1.111-4.016,2.087-5.477,2.846c0.869-0.434,1.604-0.801,2.236-1.117
								c0.564-0.29,1.035-0.533,1.439-0.741C862.219,43.298,862.751,43.001,863.23,42.726z"/>
							<path fill="#6C9CFF" d="M1014.024,116.762c2.08,0.381,4.335,0.795,7.167,1.315
								C1019.843,117.829,1016.712,117.255,1014.024,116.762z"/>
							<path fill="#6C9CFF" d="M166.087,507.657c-0.295-0.679-14.231-20.204-14.322-19.604c4.182,5.762,8.394,11.567,12.624,17.396
								L166.087,507.657z"/>
							<path fill="#6C9CFF" d="M1464.087,202.449c-2.619-0.517-5.249-1.036-7.878-1.555c-0.57-0.087-1.119-0.17-1.544-0.235
								C1456.256,201.035,1461.459,201.975,1464.087,202.449z"/>
							<path fill="#6C9CFF" d="M889.441,53.837c-3.975-1.882-5.762-2.685-6.74-3.091C885.271,51.973,887.654,53.083,889.441,53.837z
								"/>
							<path fill="#6C9CFF" d="M1465.37,203.737c3.315,0.775,8.201,1.922,8.868,2.219c6.832,1.343,11.673,2.063,18.644,3.348
								C1485.021,207.828,1475.946,206.005,1465.37,203.737z"/>
							<path fill="#6C9CFF" d="M1493.448,209.408c-0.196-0.036-0.392-0.071-0.566-0.103
								C1493.077,209.34,1493.252,209.372,1493.448,209.408z"/>
							<path fill="#6C9CFF" d="M174.394,519.261c1.245,1.645,2.528,3.339,3.849,5.084l-2.058-2.606
								c3.233,4.471,6.448,8.917,9.669,13.371c1.194,1.591,2.489,3.315,4.08,5.434c-0.645-0.852-1.171-1.491-1.513-1.876
								c1.047,1.452,2.069,2.87,3.092,4.289c8.14,10.323,27.768,36.474,33.566,43.919c2.05,2.715,4.225,5.596,6.417,8.499
								c2.344,3.136,4.707,6.296,6.971,9.325c-1.193,6.177-2.298,11.896-3.167,16.396c0.542-2.815,1.142-5.93,1.682-8.73
								c0.57-3.125,1.076-5.899,1.395-7.646c-1.386-1.8-1.911-2.401-1.106-1.161c0.306,0.429,0.609,0.852,0.868,1.215
								c-0.5,2.343-0.97,4.547-1.424,6.676c-0.421,1.91-0.827,3.752-1.229,5.582c-0.798,3.662-1.584,7.276-2.459,11.291
								c-1.701,8.039-3.608,17.712-6.216,32.664l3.49-17.911l-6.935,40.45c-3.144,14.032,3.461-20.189,4.217-25.845
								c-5.659,31.409-11.977,57.216-14.005,71.893c-0.878,1.951-2.349,5.227-6.316,25.786c3.441-14.71-2.056,12.389,0.904,0.348
								c-1.113,7.153-4.651,22.89-4.523,24.142l0.177-1.96c-3.807,17.471-5.975,29.136-7.508,38.319
								c-0.767,4.592-1.375,8.563-1.95,12.329c-0.565,3.612-1.099,7.027-1.667,10.654c-0.314,1.664-0.621,3.282-0.834,4.411
								c8.799,2.118,16.493,3.97,23.55,5.669c7.595,1.857,14.505,3.548,21.236,5.194c13.465,3.282,26.214,6.39,42.293,10.308
								c1.256,0.641,10.283,3.755,23.904,7.021c6.433,1.104,37.188,8.349,40.456,8.557c-24.282-6.13-20.024-4.364-34.625-7.768
								c-11.988-3.518-0.96-0.838-17.441-5.198c13.315,3.466,60.48,14.342,74.99,18.433l-5.187-1.177
								c23.292,5.994,27.428,8.439,66.567,17.054l18.661,4.166c-0.909-0.162-1.026-0.123-1.516-0.189
								c30.398,7.43,21.944,6.044,55.64,13.688c-2.604-0.591-0.991-0.135-3.635-0.736c19.064,4.947,38.516,9.005,53.016,12.382
								c8.72,2.6-2.206-0.056-7.75-1.048c33.625,8.339,70.15,16.357,91.195,20.865l21.638,5.53
								c-12.917-2.93-28.765-6.259-24.905-5.028c11.958,2.801,9.701,2.023,26.559,6.203c-2.951-0.404-10.099-1.847-18.125-3.4
								c34.791,8.953,8.057,0.85,32.268,7.673c10.967,2.665,17.44,3.779,18.727,3.715l19.759,5.281
								c2.317,0.083,26.855,6.004,42.948,9.832c2.011,0.281-12.825-3.619-18.962-4.922c1.287-0.063,18.431,3.915,29.428,6.588
								c3.799,1.925,72.05,17.319,58.776,15.285c12.367,2.933,25.986,6.161,39.968,9.477l1.222,0.29l0.591,0.141l0.296,0.07
								c0.099,0.003,0.197-0.041,0.295-0.06l2.466-0.609c1.754-0.433,3.511-0.866,5.271-1.3c3.52-0.868,7.048-1.738,10.57-2.606
								c7.046-1.737,14.072-3.47,20.967-5.17c27.578-6.804,53.054-13.108,69.312-17.259c10.817-2.345,32.737-7.645,19.71-4.016
								c39.773-9.637,60.05-15.581,99.591-24.892c3.295-0.673-17.844,4.335-16.363,4.311c25.711-6.635,47.043-10.979,87.02-20.937
								c-6.731,1.649-8.647,2.321-9.561,2.646c-0.739,0.014,16.323-4.302,26.645-6.965c5.839-1.329-7.726,1.993-4.431,1.322
								c77.45-18.285,136.06-33.856,212.991-52.459c-10.985,2.656-18.516,4.645-23.321,6.008c-4.805,1.363-6.886,2.102-6.972,2.259
								l21.522-5.205c8.217-2.323,24.374-6.239,37.829-9.749c1.688-0.284,8.291-1.75,1.622,0.023
								c42.664-9.668,66.122-17.242,118.296-29.543l-62.776,16.558l15.715-3.342l-27.597,7.299
								c16.648-3.668,30.861-7.963,32.972-7.97c-3.468,0.982-11.913,2.984-12.115,3.305c15.948-3.668,17.113-4.326,29.046-7.316
								c-31.266,8.604-93.03,23.559-126.214,31.854c-5.211,1.344,4.421-1.318,5.322-1.642c-13.555,3.319-21.768,4.991-38.8,9.297
								c-10.504,2.979,8.161-1.659,16.586-3.656c-1.073,0.637-5.312,1.642-14.669,3.966c-2.15,0.02-51.484,12.302-63.702,14.65
								c-50.034,12.286,8.305-0.713-40.624,10.93l-14.732,2.996c-28.275,7.299-64.886,16.566-97.025,24.233l6.762-1.657
								c4.451-1.325-3.031,0.338-6.356,1.018c-24.323,5.649-45.968,11.594-60.803,14.614
								c-27.535,7.285-73.574,18.897-105.146,26.866c-8.71,1.353,41.132-10.613,54.19-14.252l-28.805,6.984
								c17.804-4.325,24.769-6.302,35.343-9.296c-25.275,5.985-33.427,8.625-57.313,14.607c1.814-0.646-1.409,0.008-12.45,2.679
								l-3.019,1.234c-0.213,0.011-1.442,0.271-4.858,1.066l-42.511,10.611c9.084-1.985,9.622-1.678,20.622-4.339
								c-3.994,0.675,5.322-1.642,16.333-4.303c-9.57,2.648,10.798-2.341,10.627-2.027c-22.072,5.337-49.173,11.974-63.609,15.61
								l-4.808,0.702c-5.26,1.265-10.594,2.548-15.858,3.814c-2.63,0.643-5.243,1.281-7.821,1.911
								c-1.442,0.354-2.875,0.705-4.296,1.053l-0.66,0.162l-0.33,0.08c-0.109,0.022-0.219-0.039-0.329-0.055l-1.313-0.315
								c-0.732-0.175-1.46-0.35-2.185-0.522c-9.972-2.385-19.099-4.565-26.215-6.358l4.554,0.857
								c-25.201-6.25-50.116-11.991-72.417-17.849c-22.628-4.955-51.065-11.407-69.588-15.343
								c-9.976-1.82-65.872-16.718-91.441-22.074c-1.694-0.475,17.533,3.8,26.243,5.686c-16.859-4.18-30.45-6.73-35.596-8.607
								c37.832,9.382-1.92-0.967,15.184,3c-17.737-4.288-36.465-8.714-45.215-10.61c28.704,6.953-10.395-1.649,18.728,5.136
								c-22.638-4.958-53.414-12.206-80.198-18.903c0.327-0.193-2.951-1.114-12.927-3.645l-8.159-1.584
								c-12.539-3.11,24.384,5.444-0.858-0.814c-26.161-5.667-78.228-19.344-89.898-20.927c-19.708-5.269,37.832,8.672,8.097,0.861
								c17.482,3.787,41.335,10.085,47.206,10.886c-17.073-3.961-6.096-2.004-17.083-4.673l-19.084-4.242l4.196,1.041
								c-32.012-7.173-82.455-19.682-123.187-29.454c-17.323-3.837-31.95-7.076-47.438-10.507
								c-7.741-1.728-15.693-3.529-24.292-5.528c-4.297-1.012-8.759-2.062-13.441-3.164c-5.395-1.302-11.044-2.665-17.011-4.105
								c6.931,1.548,1.881,0.24-5.237-1.568c0.663-3.21,1.42-6.873,2.1-10.161c0.271-1.264,0.526-2.456,0.749-3.497
								c0.203-0.882,0.376-1.636,0.504-2.193c0.271-1.112,0.397-1.435,0.276-0.423c-0.061,0.507-0.183,1.347-0.381,2.588
								c-0.103,0.633-0.224,1.368-0.362,2.216c-0.21,1.191-0.448,2.539-0.716,4.057c0.584-2.839,1.168-5.672,1.742-8.459
								c0.475-2.37,0.94-4.7,1.392-6.955c0.887-4.512,1.685-8.725,2.349-12.351c0.664-3.625,1.194-6.661,1.547-8.818
								s0.528-3.436,0.482-3.543c-3.412,16.988-1.252,5.964-4.177,20.263c1.574-9.73,5.943-32.015,7.937-41.129
								c-0.852,4.238-0.477,2.638-0.561,3.592c4.178-20.263,1.589-9.792,4.325-24.49c1.349-4.568,6.447-32.374,9.293-45.729
								l3.169-19.553c-1.673,10.756,3.788-18.589,4.766-21.577c2.432-13.99,4.204-25.772,8.46-46.969
								c-0.749,4.403,0.274-0.421,1.546-6.382c0.646-2.979,1.353-6.242,1.903-8.783c0.145-0.635,0.28-1.224,0.4-1.752
								c0.031-0.132,0.061-0.26,0.09-0.384c0.017-0.059,0.033-0.116,0.049-0.171c0.033-0.106,0.063-0.205,0.09-0.295
								c0.115-0.362,0.21-0.595,0.27-0.622c0.044-0.202,0.087-0.402,0.129-0.593c-0.317-0.447-0.631-0.89-0.941-1.328
								c-0.631-0.868-1.255-1.728-1.874-2.578c-1.29-1.759-2.554-3.484-3.798-5.18c-2.511-3.372-4.936-6.627-7.299-9.8
								c-4.785-6.303-9.325-12.282-13.833-18.219c-9.042-11.855-17.934-23.561-27.957-37.702c0.726,0.818,5.144,6.354-0.842-1.967
								c-4.877-6.433-13.209-17.85-18.363-24.781l0.171,0.212c-0.103-0.132-0.167-0.215-0.276-0.356
								c-2.524-3.394-4.142-5.505-4.287-5.528c-9.093-11.663-13.952-17.551-31.471-40.782c0.872,2.01,15.574,21.686,22.001,30.163
								l5.833,7.121c4.61,7.513,15.644,21.062,19.407,26.599c-11.033-13.55-40.636-54.171-58.925-78.149
								c10.343,15.214,33.947,47.499,54.684,75.563l-8.868-12.556l10.823,14.705l-10.05-14.546
								c10.172,13.989,19.135,25.955,28.37,38.566c-10.848-14.738-14.529-20.882-8.481-12.477
								c11.695,16.715,12.841,16.938,22.051,29.515c-5.105-7.019-11.784-16.116-7.249-10.42
								c8.868,12.557,14.608,20.45,20.138,28.066c2.757,3.814,5.462,7.558,8.502,11.765c1.507,2.112,3.097,4.341,4.817,6.753
								c0.855,1.21,1.743,2.465,2.669,3.775c0.462,0.655,0.934,1.325,1.415,2.009c0.241,0.343,0.484,0.688,0.729,1.038l0.185,0.263
								c0.084,0.118,0.046,0.07,0.075,0.113l0.078,0.131c0.043-0.229,0.284-0.076,0.728,0.424c-0.016,0.141-0.034,0.299-0.054,0.471
								c-0.013,0.088-0.026,0.18-0.04,0.275l-0.022,0.146c-0.019,0.106-0.038,0.216-0.058,0.326c-0.277,1.461-0.589,3.1-0.92,4.843
								c-0.678,3.484-1.438,7.39-2.168,11.138c-1.456,7.496-2.754,14.374-2.813,16.049l2.554-12.718l-4.794,27.098
								c-5.519,24.79,3.647-22.19-4.221,15.635c-6.916,34.972-5.9,34.23-11.213,61.749c1.298-9.154,5.154-31.048,9.504-53.239
								l-2.854,13.395c1.115-7.163,7.171-37.854,10.193-53.169c-4.403,25.424,2.481-11.814,5.157-23.25
								c-0.044-2.206-3.148,14.063,0.234-5.202c-3.504,17.982-3.98,20.621-8.621,43.459c2.753-13.784,4.523-23.361,5.834-30.942
								c0.632-3.795,1.18-7.085,1.69-10.151c0.244-1.534,0.479-3.013,0.711-4.47l0.086-0.546l0.038-0.244l-0.006-0.022l-0.025-0.08
								c-0.017-0.051-0.035-0.094-0.054-0.131c-0.085-0.047-0.159-0.079-0.222-0.101c-0.725-0.927-1.465-1.873-2.232-2.854
								c-1.543-2.012-3.192-4.163-5.035-6.564c-3.654-4.828-8.009-10.714-13.695-18.594c12.176,16.205-3.644-6.093-4.907-8.191
								c-5.695-7.651-17.245-23.173-22.052-29.515l3.724,6.202c-15.41-20.468-19.532-28.482-37.605-51.891
								c-2.601-2.856,15.295,21.033,12.082,16.794c-24.304-32.342-32.062-44.726-52.932-73.966
								c-1.366-1.517-1.462-0.927-9.191-10.837c2.665,2.94-2.676-4.672,5.935,6.539c-6.976-9.776-15.643-21.063-22.046-29.506
								c14.619,20.283-6.527-7.897-9.451-11.465c-7.616-10.475,2.663,2.941,7.477,9.291c-2.771-3.852-5.701-8.092-8.442-11.977
								c-0.689-0.969-1.363-1.917-2.016-2.835c-0.772-1.061-1.518-2.085-2.23-3.063c-2.296-3.117-4.402-5.916-6.273-8.304
								c0.716-0.995,1.311-1.846,1.846-2.632c0.138-0.078-0.449,0.8-1.761,2.632c2.433,3.137,8.32,10.729,15.21,19.614
								c5.377,6.986,11.48,15.028,16.396,21.634l-7.641-10.508c5.477,7.083,6.42,8.469,14.007,18.9
								c-7.213-10.368-6.182-9.58-4.195-7.389c0.93,1.37-0.627-0.683,0.261,0.627c6.065,8.432,10.878,14.782,9.634,12.708
								c5.993,7.186-8.245-11.818-12.183-17.655c-3.181-4.262-6.363-8.524-9.481-12.703l-8.676-10.997l-4.338-5.498
								c-2.233-2.904-4.467-5.808-6.303-8.708l5.982-8.317l3.704-5.338l7.408-10.676c13.834-18.442,20.479-26.409,31.219-39.996
								l2.497-4.074c12.225-15.904,23.847-30.845,16.531-20.255c-0.569,0.474-2.147,2.602-4.812,6.047
								c-0.296,0.498-0.87,1.325-1.608,2.355c-0.226,0.354-0.35,0.55-0.536,0.842c12.917-17.167,20.982-27.883,21.725-28.87
								c-21.591,29.407-0.398,1.988-3.414,7.366l22.154-29.438c-13.785,17.571-0.586,0.066,4.134-6.301
								c0.653-0.548,3.414-4.085,7.018-8.82c3.894-5.154,8.746-11.575,13.121-17.366c4.798-0.95,9.246-1.832,12.749-2.525
								l-0.916,0.282c11.775-2.135,32.345-6.216,46.959-9.216c-0.699-0.03,17.927-4.497,26.855-6.739
								c-25.155,4.744-10.285,1.629-12.357,1.726c2.604-0.482,7.28-1.393,7.813-1.561c3.569-0.842-4.916,0.774-5.656,0.754
								c-26.658,5.458-54.118,10.907-64.876,13.712c8.258-1.303,13.916-3.029,23.13-4.625c-4.417,1.023-9.279,2.071-14.636,3.176
								c-2.681,0.543-5.483,1.112-8.414,1.706c-3.612,0.713-7.382,1.458-11.319,2.235c-4.223,5.514-8.827,11.526-13.808,18.03
								l-4.829,5.639l-13.643,18.207c5.596-7.674,1.783-3.394,16.218-22.406c-2.158,2.186-14.31,18.857-23.291,30.388l-4.108,6.269
								c1.508-2.471-17.542,22.342-4.369,4.436l21.613-28.995l-6.401,7.757l18.487-24.347l-4.158,5.901
								c4.262-5.662,7.495-9.916,9.988-13.16c3.307-4.25,5.601-7.199,7.281-9.359c2.447-0.435,4.376-0.777,6.005-1.066
								c0.873-0.122,1.586-0.221,2.254-0.314c1.339-0.176,2.504-0.317,4.417-0.628c3.828-0.622,10.653-1.922,27.866-5.529
								c15.058-3.624,31.369-6.894,61.133-12.564c-21.485,4.362-2.12,0.889-10.142,2.851c21.998-4.031,29.301-6.017,40.635-8.5
								c5.656-0.754,9.687-1.253-9.925,2.539c-2.315,1.197,25.763-5.179,27.695-4.792c64.937-12.751,51.57-12.581,127.665-26.541
								l-2.788,0.855c48.132-9.819,76.013-14.916,120.607-23.9l35.295-6.133c-7.836,1.657-28.859,6.364-18.925,4.795
								c-17.246,2.587-35.337,6.41-53.838,9.611c-1.841,0.567,5.687-0.759,8.978-1.277c-11.118,2.172-16.764,2.923-31.419,5.933
								c0.74,0.019,16.794-2.931,4.74-0.472l-20.064,3.444c-26.678,5.462-12.94,3.707-44.369,9.643
								c5.753-1.564,17.552-4.508,29.686-6.991c-14.36,2.721,19.07-4.001,5.932-1.687c-20.539,4.672-30.611,6.135-58.007,11.91
								c3.209-0.719,4.038-1.008,10.791-2.372l-39.914,7.552c9.934-1.57-32.85,6.854-29.035,6.667
								c42.526-8.104,29.979-5.983,78.45-15.166c-13.681,2.809-31.245,6.823-39.426,8.952c-0.425,0.061-1.127,0.181-2.619,0.463
								c-7.292,1.985,0.277,0.65,0.316,1.614c21.968-4.997,36.85-7.346,62.839-12.838c4.8-1.473-15.251,2.312-28.181,4.983
								l22.896-4.84l-4.474,1.122l58.317-11.253c-11.039,2.192-14.731,3.224-20.451,4.578c7.524-1.454,15-2.779,22.95-4.183
								c-1.76-0.163-0.78-0.713,6.558-2.142c37.522-7.234,58.454-10.882,72.402-13.036c1.436-0.293,3.057-0.625,4.359-0.89
								c-6.386,0.731,26.454-6.121,37.973-8.91c-0.474,0.631,19.386-3.478,30.246-5.332c5.637-1.722-2.198-1.038-15.454,1.056
								c-25.25,5.513-14.102,3.333-25.93,6.452l-40.574,8.487l9-2.256c-20.342,3.77-39.719,8.219-38.351,7.31
								c10.646-2.514,28.407-5.736,38.969-8.235l-13.472,2.407c23.573-5.25,12.258-1.797,40.86-7.842
								c-10.654,1.544,2.592-0.547,14.81-3.308c-9.934,1.568-50.477,10.05-42.032,7.469c14.841-3.313,50.393-8.793,69.955-13.548
								l-0.946,0.29c8.22-1.578,14.927-2.91,20.553-4.063c2.811-0.586,5.354-1.117,7.682-1.604c1.163-0.25,2.271-0.488,3.333-0.716
								c0.531-0.115,1.05-0.229,1.558-0.339l0.379-0.083c0.107-0.024,0.075-0.021,0.119-0.032l0.151-0.048
								c5.286-2.808,9.226-4.899,13.271-7.048c11.46-5.308,26.919-13.373,39.184-19.441l-0.184,0.385l17.274-8.62
								c-8.036,4.489-20.307,9.973-35.157,17.355l2.067-0.47c-7.664,3.483-14.095,6.678-20.013,9.753
								c-2.959,1.537-5.79,3.045-8.582,4.544c-1.396,0.751-2.782,1.498-4.17,2.245l-2.084,1.123l-1.045,0.562
								c-0.115,0.061-0.109,0.062-0.138,0.08l-0.072,0.047l-0.146,0.095l-0.178,0.058c-0.079,0.023-0.051,0.025-0.33,0.087
								l-1.274,0.293c-0.853,0.194-1.711,0.39-2.577,0.587c1.342-0.288,2.765-0.593,4.388-0.941l0.273-0.148
								c0.302-0.153,0.606-0.307,0.913-0.462c0.634-0.319,1.277-0.643,1.929-0.971c1.305-0.653,2.642-1.322,4.004-2.003
								c2.728-1.354,5.552-2.756,8.4-4.169c5.701-2.819,11.498-5.686,16.81-8.312c10.616-5.271,19.257-9.657,21.166-11.09
								l12.197-5.446l5.652-2.979c9.089-4.056,0.234,0.95-17.022,9.56c-3.061,1.368-4.591,2.052-3.725,1.512
								c-7.936,4.147-15.143,8.116-34.63,17.574l10.257-5.334c-4.731,2.329-9.379,4.617-13.852,6.819
								c-4.251,2.114-8.336,4.146-12.169,6.052c-3.219,0.662-6.277,1.292-9.135,1.879c-3.062,0.646-5.909,1.246-8.496,1.791
								c-5.171,1.11-9.298,2.041-12.028,2.726c10.069-1.928,20.093-3.848,29.886-5.724c25.271-12.393,49.941-24.491,73.787-36.185
								c9.187-5.754,20.393-11.958,24.87-15.31c7.11-3.549,15.044-7.51,23.166-11.564c9.214-4.542,18.641-9.188,27.56-13.584
								c5.412,2.69,10.65,5.293,15.593,7.75c3.911,1.984,7.588,3.85,10.933,5.548l-1.847-0.682
								c9.283,4.683,17.903,8.86,25.123,12.281c9.736,5.089-6.985-2.829-0.183,0.68l31.681,15.196
								c-2.15-0.538-28.682-13.583-41.295-19.75c2.395,1.134,7.229,3.425,5.716,2.611c-5.957-3.018-14.102-6.927-22.064-10.75
								c-3.979-1.917-7.912-3.813-11.512-5.548c-1.795-0.879-3.507-1.717-5.1-2.497c-2.559-1.274-4.926-2.453-7.045-3.508
								c-2.072,0.982-3.923,1.86-5.513,2.614c-0.355,0.162-0.695,0.318-1.02,0.467c-0.213,0.091-0.417,0.178-0.609,0.26
								c-0.389,0.156-0.737,0.296-1.04,0.418c-7.088,3.617,14.286-7.581-9.902,4.276c-16.299,7.733-21.302,10.869-22.904,11.882
								c-0.146,0.367,25.563-12.168,16.798-7.502c4.378-2.201,7.837-3.94,11.175-5.618c1.666-0.844,3.302-1.673,5.007-2.537
								c2.519-1.251,5.139-2.553,8.009-3.979c2.427,1.199,5.06,2.499,7.98,3.941c1.973,0.997,4.141,2.091,6.561,3.313
								c-4.522-2.181-9.529-4.595-14.541-7.012c-5.683,2.864-11.373,5.731-16.325,8.227c-4.214,2.102-7.822,3.846-10.216,4.863
								c-24.472,12.584-20.383,11.955-8.712,6.292c-2.943,1.014,44.827-22.581,12.229-7.113c2.744-1.456,5.938-3.113,9.442-4.909
								c1.754-0.895,3.584-1.827,5.472-2.79c2.629-1.32,5.341-2.681,8.11-4.071c7.194,3.47,14.872,7.173,22.392,10.8
								c6.761,3.237,13.379,6.407,19.277,9.23l-0.908-0.335l23.673,11.504c-3.387-1.511-10.579-4.917-10.93-4.797l33.024,15.453
								c-18.623-8.629,11.27,5.91,19.557,10.22c3.683,1.361,16.59,7.378,4.432,1.142c-13.652-7.042-8.119-3.75-20.665-9.885
								l18.027,8.156l1.495,0.804l10.912,4.785c24.155,11.921-11.096-4.105,20.104,10.67l-3.717-2.62
								c4.367,2.174,8.896,4.427,13.528,6.733c17.75,3.626,36.762,7.511,54.296,11.094c17.829,3.631,34.167,6.906,46.254,9.13
								c-7.722-1.102-11.217-1.124-0.78,1.314c-11.925-2.462-35.94-7.144-53.09-10.438c-3.273-0.769,21.572,3.373,40.159,7.172
								c-8.796-2.911-46.964-8.49-48.925-10.077c-11.088-2.271-18.935-3.798-24.964-4.915c-3.018-0.541-5.576-0.999-7.857-1.407
								c-1.142-0.194-2.214-0.377-3.239-0.551c-0.513-0.085-1.014-0.169-1.505-0.251l-0.367-0.061l-0.11-0.01l-0.203-0.017
								c0.025,0.049-1.358-0.594-2.249-0.996c-0.975-0.446-1.95-0.892-2.957-1.353c-2.012-0.926-4.143-1.921-6.629-3.115
								c-4.973-2.386-11.369-5.56-21.076-10.539c-0.74,0.223-10.579-4.917-12.72-5.451c3.506,2.043,10.142,5.41,18.312,9.436
								c8.021,3.903,17.511,8.52,26.949,13.112c5.056,0.973,10.097,1.943,14.921,2.872c5.022,0.982,9.814,1.938,14.161,2.842
								c-2.565-0.464-7.728-1.396-8.754-1.495c18.648,3.813,26.387,5.211,39.472,7.576l-1.632-0.383
								c22.896,3.963,14.03,3.151,27.403,6.008c5.214,0.942,23.842,4.749,20.916,3.781l24.202,5.254l-1.059-0.807
								c13.712,2.653,16.637,3.622,29.127,5.705l0.677-0.404l-34.002-6.852c17.283,3.212,4.905,0.448,23.882,4.055
								c-21.285-3.585,14.923,3.223,16.914,4.111l13.999,2.442l-3.592-0.561c10.89,2.411,13.064,2.361,25.822,4.932
								c-15.005-3.24-24.797-5.538-44.061-8.932c14.029,2.448,41.801,7.558,48.605,8.874c14.714,2.659,24.88,5.061,38.594,7.81
								c-26.383-4.957,8.919,3.376-43.795-7.343c0.995,0.092,5.265,0.953,6.907,1.337c-6.908-2.04-31.652-6.162-43.146-8.152
								c2.874,0.958-9.113-1.294,11.137,2.894c-6.61-1.548,17.262,2.504,36.505,6.6l-3.561,0.147l28.091,5.606l-2.638-0.477
								c10.469,2.596,30.009,5.777,49.305,9.88c14.029,2.448,67.593,13.188,44.695,7.815c17.273,3.915,32.646,6.254,51.623,9.861
								l-23.564-4.964c28.049,4.894,19.931,3.692,42.468,7.149c2.217,0.666,7.164,1.825,2.577,1.169
								c37.522,7.399,91.075,18.136,113.223,21.786c4.543,0.916,8.542,1.721,12.103,2.439c1.134,1.532,2.226,3.007,3.284,4.438
								c0.64,0.881,1.26,1.734,1.864,2.567c1.203,1.67,2.348,3.259,3.474,4.822c2.249,3.129,4.425,6.156,6.853,9.533
								c4.881,6.737,10.854,14.812,20.747,27.676c4.886,6.294-3.115-5.426,11.759,14.722c0.965,1.384-14.995-18.891,1.835,3.35
								c12.457,15.481,27.783,37.478,43.769,57.786c8.022,11.036,22.332,29.892,18.963,26.257
								c-12.908-17.331-31.389-41.696-34.385-45.272c2.038,2.2-9.01-12.455,0.757,0.125c-19.345-26.322-13.003-16.747-30.424-40.312
								c-1.377-1.492,8.617,12.371,12.54,17.28c-0.469,0.523-35.025-45.956-20.016-24.651c18.79,25.05,25.53,31.612,41.275,53.726
								c-6.879-8.437-16.829-22.241-25.721-32.844l13.193,17.98l10.135,12.63l-0.66-0.708c10.94,15.023,16.562,22.254,21.707,28.64
								c2.584,3.183,5.018,6.181,7.965,9.812c1.462,1.826,3.051,3.812,4.85,6.06c0.974,1.241,2.005,2.554,3.104,3.954
								c1.508,1.957,3.108,4.034,4.818,6.253c-1.517,2.129-3.158,4.437-4.907,6.894c2.288-3.062,3.999-5.319,5.221-6.897
								c-2.682-3.814-2.676-4.083-1.815-3.21c0.851,0.858,2.56,2.86,2.991,3.2c-0.187,0.314-0.155,0.327,0.121-0.001
								c-0.023-0.203-1.321-2.075-4.882-6.915c1.807,2.389,3.577,4.731,5.226,6.912c-3.99,5.514-7.689,10.625-10.994,15.192
								c-2.559,3.51-4.827,6.592-6.731,9.134c-3.809,5.083-6.16,8.006-6.461,7.878c11.712-16.623,12.808-18.435,12.935-18.919
								c0.063-0.243-0.114-0.153,0.671-1.417c0.394-0.632,1.027-1.603,2.054-3.123c0.257-0.379,0.538-0.793,0.845-1.246
								c0.444-0.638,0.926-1.33,1.448-2.081c1.081-1.544,2.332-3.329,3.778-5.394c-1.25-1.609-3.523-4.537-6.22-8.007
								c0.77,1.111,1.171,1.776,0.999,1.698c-0.071-0.02-0.238-0.162-0.427-0.328c-0.21-0.196-0.327-0.267-0.467-0.367
								c-0.24-0.148-0.395-0.185,0.103,0.624c0.619,0.97,1.963,2.879,4.547,6.395c-1.41,1.923-3.208,4.375-5.479,7.47
								c-15.648,22.458,5.266-6.295-10.554,15.948c-0.995,1.27-2.027,2.59-1.551,1.759c-7.07,10.378-8.692,11.789-17.279,24.327
								l2-2.999c-11.321,14.927-11.63,16.875-21.452,29.668c4.195-4.924-6.008,9.015-11.611,17.301
								c9.739-13.125,15.521-19.86,34.396-46.005c1.956-3.392,0.393-1.616,7.999-12.459l-12.25,17.007
								c2.576-3.718,4.538-6.551,6.899-9.959l11.974-16.186c-14.731,20.846-7.518,11.618-13.536,20.651
								c-13.839,18.817-11.212,15.679-19.931,27.5c0.385-1.544-27.23,35.89-43.311,57.453c2.456-3.379,5.625-7.741,7.336-10.096
								c11.151-16.045-8.283,10.599-8.839,11.089l-8.107,11.708c1.538-2.195,3.599-5.279-0.029-0.409
								c-11.212,15.678-10.078,15.115-21.271,30.769c-1.112,0.979,8.024-12.492,0.869-2.898
								c-2.649,3.174-10.968,13.372-25.725,34.252c-0.961,1.541-4.789,6.95-9.252,13.207c0.61-0.877,1.375-1.977,1.65-2.373
								c-3.217,4.243-6.434,8.485-9.524,12.756l-0.117,0.024l-0.013-0.054c0.724-1.118,1.359-2.077,2.514-3.727
								c1.051-1.479,2.103-2.963,3.156-4.449c2.151-2.939,4.309-5.889,6.468-8.839c4.34-5.886,8.686-11.778,12.715-17.822
								l0.295-1.312c6.635-9.169,15.46-21.754,19.382-27.639c-10.189,13.923-12.207,16.947-23.432,32.643
								c-1.855,1.991,5.911-9.163,7.03-10.77l-1.444,2.509c13.849-18.383,19.761-28.166,36.636-51.312
								c2.553-3.49,1.037-1.33,0.555-0.491c13.181-19.086,27.091-37.102,39.758-55.759l-4.083,6.117
								c8.793-12.582,25.982-37.181,43.16-61.762l-0.026-0.316c-2.053,2.624,4.552-6.489,8.162-11.333l-0.016,0.027
								c3.843-5.521,7.614-10.94,10.557-15.169c-4.95-6.367-8.961-11.525-12.554-16.146c2.172,3.096,4.996,7.024,8.311,11.474
								c0.194,0.24,0.45,0.556,0.759,0.938c0.235,0.298,0.512,0.646,0.821,1.036c0.59,0.762,1.307,1.687,2.094,2.704
								c-2.485,3.492-5.586,7.85-7.884,11.079c-2.537,3.605-4.137,5.988-3.155,4.978c-7.733,10.118-19.373,27.011-25.024,34.462
								c10.274-13.591-6.534,9.914-8.038,12.508c-3.64,4.435-14.778,20.463-13.85,18.383c-2.069,2.651,5.156-6.595,9.177-12.627
								c10.108-14.707-19.463,26.236-6.766,7.988c-16.309,23.091-38.266,53.182-55.013,77.054l9.725-13.11
								c-7.655,10.459-25.558,35.369-27.084,37.094c5.613-7.827,12.174-16.972,19.356-26.985
								c-0.077-0.792-17.358,23.986-18.426,24.906l-20.275,29.499l9.214-12.679c-1.953,2.891-5.65,8.043-10.249,14.364
								c-4.692,6.411-10.27,14.033-15.903,21.732c1.458,7.806,2.931,15.686,4.266,22.833c-0.728-2.951-1.467-6.324-2.233-10.062
								c-0.373-1.871-0.764-3.832-1.172-5.875c-0.43-2.245-0.878-4.581-1.342-7.002c3.499-4.788,7.309-10.003,11.344-15.525
								c3.897-5.346,7.99-11.005,12.151-16.895c10.663-15.196-7.286,8.878,2.875-5.454c-2.807,3.591-9.512,12.889-12.68,17.575
								l-4.17,5.537c8.658-13.08,29.378-41.456,42.634-60.733c-1.146,1.704-2.136,3.197-2.454,3.768
								c10.765-14.438,21.48-29.26,31.634-43.584c-5.612,7.401-7.653,10.46-10.704,14.805c-0.518,0.439,9.143-13.027,12.675-18.212
								c-9.731,13.118-2.101,2.241-8.247,10.548c6.11-8.708,11.199-15.661,18.855-26.12c4.142-5.299-2.983,4.704-1.916,3.783
								c7.668-10.927,11.877-15.416,23.027-31.461c-15.347,20.969,3.442-5.961,8.514-13.34l-2.571,3.515
								c4.522-6.898,8.61-12.572,12.232-16.981c-6.111,8.708-12.232,16.981-10.145,14.757c4.105-5.7,8.199-11.383,12.77-17.897
								l-4.016,6.024l20.407-28.331c1.486-2.336,3.471-5.455,5.409-8.502c0.48-0.764,0.959-1.523,1.426-2.265
								c0.231-0.372,0.461-0.739,0.687-1.1l0.168-0.27c0.043-0.073,0.047-0.091,0.072-0.139l0.116-0.238
								c0.3-0.622,0.516-1.133,0.635-1.513c0.07-0.082,0.141-0.164,0.22-0.255c-0.197-0.316-0.422-0.657-0.665-1.011
								c-0.125-0.178-0.251-0.358-0.379-0.541c-0.204-0.278-0.41-0.56-0.618-0.844c-1.408-1.86-2.865-3.785-4.312-5.695
								c-2.937-3.787-5.829-7.516-8.188-10.557l2.337,2.867c-9.031-12.478-29.84-39.704-31.82-41.83
								c-6.403-8.952,48.326,60.972,1.314-0.989c-17.789-23.616-11.85-14.13-22.269-27.411c0,0,0.651,0.702-0.306-0.674
								c-7.729-10.379-8.802-11.195-15.325-19.599c4.55,6.285,11.309,15.271,13.6,18.081c-2.665-2.868-16.184-21.548-22.401-29.276
								c8.237,9.904-14.856-20.123-8.593-12.336c-3.232-4.434-6.546-8.908-9.837-13.3c-1.652-2.191-3.291-4.367-4.907-6.511
								c-0.812-1.068-1.618-2.129-2.417-3.18c-0.424-0.548-0.844-1.091-1.259-1.628c-6.249-1.126-12.122-2.186-17.297-3.119
								c-5.728-1.005-10.688-1.841-14.517-2.457c-16.986-4.126-30.071-5.789-57.812-11.596c4.27,0.861,12.049,2.266,18.012,3.521
								c15.947,2.621-28.769-5.904-4.281-1.565c-5.233-0.947-0.42,0.186,4.947,1.159c9.37,1.78,18.228,3.294,15.918,2.612
								l-22.58-4.873l7.935,1.433l-34.28-7.337c-0.954-0.086,2.248,0.668,3.89,1.053c-39.842-8.082-85.522-16.692-120.459-23.623
								c-6.834,0.084-86.158-16.279-114.566-20.973c7.648,1.091,11.925,1.208,7.296,0.005c6.31,1.177,19.312,3.15,33.57,6.064
								c2.237,0.667,19.828,4.375,8.427,2.401c39.503,7.581-5.225-1.649,6.526,0.125c-43.763-8.439-69.574-12.665-97.243-17.754
								l-0.667-0.298l-20.905-3.78c17.017,3.43,16.021,4.042-5.881-0.533l2.679,0.485c-12.459-2.782-38.589-7.505-58.141-11.39
								l-13.352-2.151c-19.582-3.892-20.261-4.894-26.532-6.643c-4.604-0.895-8.916-1.733-12.982-2.524
								c-4.24-0.794-8.226-1.541-12.004-2.249c-4.118-1.95-8.001-3.788-11.736-5.556c-3.606-1.681-7.071-3.295-10.48-4.884
								c-6.821-3.171-13.419-6.237-20.478-9.518c-8.854-4.77-50.875-25.534-28.393-14.979
								c-25.473-12.163-21.241-7.861-64.195-30.216l11.433,5.222c-7.164-3.489-14.899-7.257-22.932-11.168
								c-17.966,8.966-37.04,18.485-53.489,26.695c-17.084,8.503-31.464,15.605-39.306,19.291c6.348-3.74-2.476,0.243-15.214,6.19
								c-6.364,2.983-13.72,6.431-20.636,9.673c-3.463,1.609-6.817,3.167-9.881,4.591c-3.205,1.457-6.106,2.776-8.52,3.874
								c-0.548,0.089-1.077,0.175-1.585,0.258c-0.391,0.058-0.767,0.113-1.126,0.167c-0.72,0.1-1.375,0.19-1.961,0.271
								c-1.173,0.151-2.071,0.244-2.651,0.268c2.306-0.158-14.741,3.282-17.197,3.92c-3.768,0.587-10.021,1.667-16.578,3.218
								c17.761-3.223-12.2,3.729,21.565-3.41c-16.97,4.209-38.918,9.202-76.468,16.518l0.464-0.628l29.732-5.665
								c-3.075,0.206,12.219-2.762,18.451-4.166c-55.31,10.54,6.995-2.629-49.477,8.511c-5.39,1.405-1.883,0.574-16.538,3.584
								c6.901-1.37,8.074-1.971-3.054,0.204l-10.604,2.507c-19.895,3.005,32.54-6.961,15.593-4.269
								c21.732-4.682,59.466-12.304,52.299-11.585c-35.667,6.743-31.802,7.518-69.104,14.519l-4.021,0.496
								c-13.062,2.759-15.089,3.629-22.207,5.31c-0.678-0.033-4.03,0.5-12.454,2.103c-21.989,5-36.645,8.009-56.906,12.734
								c54.201-11.19,46.526-8.596,102.485-20.069c-8.742,1.937-48.173,9.83-50.458,11.019l0.422-0.621
								c-18.173,3.842-36.336,7.679-59.26,11.995l13.916-3.03c-30.268,6.307-50.588,9.1-74.357,14.654
								c8.464-1.611,15.324-2.973,20.528-4.074c-15.571,3.292-35.173,7.081-52.163,10.319l-34.949,7.739
								c0.258-0.317-21.998,4.029-11.342,1.515c-25.361,4.562-37.127,7.67-51.712,10.662c-25.998,4.525,22.38-4.642,24.777-5.854
								c-35.718,6.752-73.483,14.38-93.519,18.791c7.294-1.321,10.846-1.925,10.501-1.726c-1.111,0.048-15.476,2.908-23.49,4.474
								l-5.441,1.416c-13.39,2.388-11.549,1.822-0.246-0.657c-2.794,0.533-5.698,1.123-8.67,1.741
								c-2.76,0.577-6.825,1.425-7.299,1.564l-0.733,1.027l-1.779,2.385c-1.216,1.609-2.431,3.216-3.635,4.81
								c-2.426,3.175-4.853,6.27-7.251,9.177c2.247-3.018,4.598-6.175,6.987-9.383c2.071-2.74,4.175-5.523,6.253-8.271
								c7.102-1.392,14.04-2.752,20.067-3.934c6.53-1.28,12.071-2.384,15.807-3.203c-8.53,1.737-15.479,3.102-21.521,4.251
								c-3.022,0.565-5.816,1.087-8.466,1.582c-1.326,0.241-2.616,0.476-3.881,0.706c-0.421,0.073-0.838,0.145-1.252,0.215
								c-0.303,0.049-0.604,0.097-0.902,0.145c-0.318,0.386-0.634,0.769-0.948,1.15l-1.895,2.383
								c-1.268,1.595-2.542,3.197-3.851,4.844c-2.606,3.304-5.355,6.79-8.495,10.771c-6.247,7.986-13.97,18.018-25.021,32.69
								c-0.569,0.474,5.226-7.628-1.659,1.368c-15.844,20.925-3.605,5.876-8.282,12.619c12.105-16.18,17.982-23.521,25.449-32.573
								l-3.054,4.452c-0.611,0.561-8.326,10.635-10.707,13.52l-1.534,2.939c0.418-1.578-12.294,14.256-21.8,27.073
								c10.156-12.531,7.491-9.085,10.724-12.136c-13.091,18.233-15.906,19.705-30.613,40.117c0.984-1.62,14.202-19.15,2.555-4.175
								c-9.562,12.458-7.901,11.092-14.175,19.553c6.791-9.74,4.631-7.556,11.948-18.145c16.896-22.203,6.842-8.936,23.228-30.738
								l-14.374,18.069c14.292-18.83,9.968-14.019,10.992-15.687c-24.946,31.745-17.851,24.649-33.739,45.199
								c-7.321,10.164,14.84-19.281,3.239-3.494c-14.815,19.248-3.093,4.606-19.474,26.4l2.582-3.771
								c-1.969,2.385-3.854,4.817-5.743,7.326c-0.471,0.629-0.943,1.261-1.419,1.897l-0.706,0.951l-0.342,0.479
								c-0.443,0.625-0.892,1.26-1.352,1.909c0.347,0.441,0.699,0.89,1.058,1.346c0.173,0.225,0.348,0.451,0.525,0.679
								c0.284,0.379,0.571,0.761,0.861,1.147c6.41,8.451-5.649-10.751,20.209,24.359c-1.383-1.634-1.922-2.212-1.972-2.176
								l-12.123-13.361l-6.062-6.681l-1.515-1.67l-0.379-0.417l-0.27-0.269l-0.544-0.545c-0.789-0.812-1.578-1.625-0.823-2.422
								c-0.011-0.513,0.057-1.128,0.204-1.847c0.073-0.359,0.166-0.745,0.279-1.156c0.125-0.426,0.211-0.802,0.454-1.383
								c-1.045,1.367-2.098,2.744-3.336,4.363c12.299,16.781,25.498,34.788,39.162,53.432c13.85,19.006,28.172,38.661,42.528,58.362
								c6.447,10.217-22.202-29.001-20.659-26.25l-13.682-18.906c1.068,0.839,29.052,39.325,17.086,21.964
								c-24.62-33.045-35.359-48.357-59.121-79.409c6.501,10.294,30.623,41.393,45.151,62.274
								c-6.28-8.637-11.696-15.843-16.98-22.822c14.055,19.307,29.096,39.968,45.086,61.933l3.783,4.794
								c-10.755-14.819-18.196-25.072-19.156-26.394c14.321,19.605,26.835,35.822,28.297,36.748l-2.537-3.489l5.355,6.952
								C167.73,510.062,171.071,514.674,174.394,519.261z M1378.463,882.807c-1.421,0.406-2.533,0.748-3.347,1.035
								C1375.959,883.544,1374.979,883.721,1378.463,882.807z M284.947,197.503c-31.916,6.14-64.099,12.331-94.766,18.231
								c13.97-2.406,26.903-4.632,36.988-6.369c9.996-1.692,17.176-2.861,19.752-3.168c5.152-0.615-8.111,2.218-54.099,11.221
								c-0.961,0.204-1.922,0.409-2.893,0.599l-1.609,2.201c0.475-0.607,0.974-1.245,1.659-2.121
								c2.922-0.551,6.286-1.186,9.965-1.88c3.772-0.729,7.868-1.521,12.157-2.351c8.57-1.697,17.912-3.547,26.987-5.344
								c7.842-1.786,24.417-5.562,38.964-8.875c7.268-1.678,14.029-3.239,18.939-4.373c2.452-0.578,4.442-1.046,5.803-1.367
								c1.358-0.326,2.085-0.511,2.013-0.515c-5.656,0.754-13.73,2.724-23.911,4.611L284.947,197.503z M307.94,195.119
								c18.037-3.395,13.885-2.861,16.631-3.652c-6.333,1.273-12.656,2.544-18.906,3.801
								C308.071,194.861,309.269,194.715,307.94,195.119z M323.445,191.435c-2.025,0.391-3.753,0.718-4.664,0.863L323.445,191.435z
								 M80.33,392.97c-0.489-0.654-0.665-0.889-1.128-1.51c2.552,3.503,5.11,7.015,7.78,10.679
								C85.971,400.699,84.011,397.981,80.33,392.97z M78.617,363.396l2.285-3.736c-2.468,3.2-4.988,6.466-7.565,9.807
								C74.346,368.486,75.372,367.439,78.617,363.396z M152.533,269.198c4.152-6.328,19.492-26.426,19.933-28.04
								c0.852-1.379-2.428,2.809-6.095,7.517c-4.058,5.279-8.39,10.916-12.983,16.892c-0.086,0.264-0.928,1.505-2.383,3.542
								c4.584-5.865,7.729-9.72,6.205-7.09c-12.294,14.69-9.941,13.986-22.679,30.289
								C130.883,297.808,148.865,274.287,152.533,269.198z M1612.214,317.578c0.309,0.501,1.411,2.2,2.978,4.572l-9.016-11.455
								c-15.528-20.848-27.333-38.026-42.03-56.25c-6.432-8.865-9.629-13.797-12.727-18.476c3.192,4.306,6.179,8.335,8.666,11.691
								C1600.458,299.379,1579.702,275.705,1612.214,317.578z M1366.843,183.289c2.638,0.478,3.603,0.562,3.603,0.562
								c-57.222-10.04-104.217-18.911-134.938-24.979c5.871,1.618,33.367,7.369,46.42,10.12l-11.699-1.762l-7.164-1.822
								l-20.229-3.482c5.562,1.448,21.84,4.564,32.658,6.959c0.964,0.088,35.889,6.313,45.68,7.906l-27.741-5.806
								c7.481,1.615,44.398,8.729,59.054,11.466c0.085-0.05-1.423-0.421-3.783-0.951c-2.359-0.53-5.572-1.218-8.898-1.901
								c-6.652-1.368-13.757-2.718-15.398-2.75c-2.926-0.969,26.141,4.724,7.84,0.713c21.86,3.863,56.448,10.995,72.489,14.335
								l2.598,1.174c17.591,3.707,12.068,1.565,32.955,6.043c-25.792-4.926,4.218,1.556-16.287-2.414
								c6.497,1.524,0.001,0.703,20.548,4.68c17.262,2.504,21.543,4.774,37.85,7.195c10.746,2.381-11.72-1.768,9.505,2.51
								c24.457,4.332,23.111,3.737,24.743,3.417c-22.754-4.64-25.76-4.217-44.367-8.02l37.275,6.21
								c-6.804-1.488-11.855-2.495-16.106-3.284c7.461,1.399,13.819,2.483,19.276,3.329c3.104,0.491,5.971,0.945,8.619,1.364
								c-21.009-4.124-39.663-7.796-42.909-8.705l2.956,0.269c-7.385-1.733-19.55-3.894-25.182-4.771
								c-18.818-3.655-37.69-6.921-41.725-8.115l7.194,1.126C1398.531,189.424,1395.951,188.924,1366.843,183.289z M635.904,128.5
								c6.493-0.753,13.279-1.592,25.006-3.528c5.864-0.968,12.963-2.211,21.878-3.855c4.455-0.837,9.366-1.76,14.808-2.783
								c5.455-1.056,11.441-2.215,18.032-3.492c4.154-2.051,9.05-4.468,14.296-7.059l-4.672,2.384
								c30.447-14.193,58.354-29.732,95.365-47.067c-17.607,9.129-16.666,8.623-35.886,19.148l18.951-9.672
								c-5.021,3.147,13.883-6.501,27.904-13.364l-12.044,6.73c-8.5,3.948-30.329,14.6-29.617,14.434
								c4.737-2.419-29.179,13.333-47.312,22.485c2.095-0.484,40.488-19.587,23.659-10.418c14.996-7.75,17.09-8.235,32.845-16.174
								c-15.034,7.768-3.463,2.447-14.607,8.326l25.884-12.915c0.749-0.187-37.644,18.917-16.109,8.997
								c5.144-2.672,14.693-7.351,22.991-11.451c8.297-4.1,15.342-7.622,15.474-7.981l0.71-0.169
								c9.654-4.685,11.768-5.928,14.366-7.386c1.3-0.729,2.72-1.513,5.265-2.807c1.278-0.636,2.832-1.41,4.786-2.382
								c0.981-0.478,2.062-1.004,3.26-1.586c0.693-0.328,1.453-0.687,2.29-1.083c0.067,0.035,0.195,0.102,0.325,0.17
								c0.038-0.047-0.051-0.152-0.325-0.342c-0.186,0.043-0.478,0.144-0.876,0.303c-0.201,0.084-0.427,0.178-0.677,0.283
								c-0.278,0.122-0.434,0.185-1.044,0.473c-2.076,0.975-4.805,2.3-8.124,3.956c-7.182,3.664-8.13,4.535-22.998,11.929
								c-6.862,2.915,17.995-8.792,7.343-4.332c-5.292,2.216-39.203,19.615-28.651,13.552l19.469-9.449
								c0.265-0.719,14.342-7.608,13.759-7.797c3.822-1.95,7.61-3.791,11.392-5.605c3.467-1.662,6.919-3.316,10.408-4.987
								c1.742,0.85,3.495,1.704,5.265,2.567c2.095,1.002,4.221,1.994,6.389,2.97c5.186,2.17-3.327-2.724,16.617,7.394
								c15.336,8.412,61.605,30.999,78.96,39.409l15.293,7.146c-1.144-0.924-28.955-14.191-19.046-9.787l23.675,11.501l-1.913-0.714
								c3.77,1.878,7.606,3.721,11.375,5.508c3.808,1.796,7.537,3.556,11.064,5.22c0.32,0.059,0.619,0.113,0.917,0.167
								c-0.27-0.043-0.55-0.088-0.924-0.148c-0.996-0.454-2.128-0.97-3.34-1.523c-1.167-0.547-2.411-1.13-3.678-1.723
								c-2.528-1.199-5.146-2.442-7.422-3.521c-4.554-2.154-7.758-3.617-6.235-2.57c4.91,2.499,7.965,4.054,10.777,5.485
								c1.408,0.714,2.755,1.397,4.243,2.151c1.561,0.77,3.271,1.613,5.34,2.633c0.749,0.141,1.937,0.365,3.242,0.611
								c-1.263-0.221-2.44-0.427-3.256-0.57c-0.512-0.229-0.91-0.406-1.157-0.517c-0.23-0.094-0.297-0.106-0.238-0.054
								c0.516,0.259,1.021,0.512,1.358,0.681c3.009,0.601,5.63,1.124,7.926,1.583c2.225,0.417,4.134,0.775,5.789,1.086
								c3.313,0.596,5.616,0.955,7.382,1.197c3.53,0.484,4.914,0.5,7.949,1.006c24.815,4.135-24.745-5.528-21.482-5.465
								l72.109,13.827c-6.188-1.032-12.418-2.072-10.14-1.395c17.622,3.713,0.318,0.497,25.135,5.334
								c-1.622-1.084,31.333,5.665,48.944,8.674c8.129,1.907,9.802,2.298-8.107-1.203c1.961,0.882,26.038,5.41,34.577,7.129
								c4.968,0.893,13.438,2.415,18.808,3.38c-7.124-1.645-4.004-1.344,11.561,1.494l0.923,0.077
								c-25.422-5.119-64.874-13.396-80.926-16.034l4.557,0.647c-29.374-6.188-64.267-11.704-77.672-15.272
								c1.324-0.112-5.901-1.242-5.286-1.659l-21.768-3.847l4.557,0.65c-7.901-1.522-15.802-3.045-23.694-4.592l-11.748-5.702
								l0.937,0.35c-16.254-7.445-28.985-13.276-39.154-17.935c-0.14,0.188,0.872,0.765-4.548-1.712
								c-5.415-2.536-9.49-4.521-13.104-6.332c-0.028-0.013-0.028-0.013-0.029-0.011l0.001-0.003
								c-8.247-4.131-13.616-7.14-23.75-12.273l31.395,15.376c2.728,0.906,0.238-0.77-15.011-8.574
								c6.291,3.078,9.057,4.098,1.298,0.232c-0.9-0.33-20.666-9.886-13.297-5.915c-8.039-3.911-17.376-8.554-27.627-13.678
								c-10.467-5.232-21.875-10.936-33.81-16.901c-10.232,5.003-20.858,10.198-31.598,15.45
								c-10.483,5.176-21.052,10.46-31.42,15.75c32.309-16.387-26.282,12.343,9.732-5.548
								c-25.463,11.827-21.402,11.211-47.121,23.751c-2.288,0.875,13.993-6.849,19.697-10.148
								c-12.884,6.252-24.497,12.032-35.568,17.608c-10.997,5.577-21.483,10.894-32.14,16.297
								c-7.707,1.591-15.498,3.199-23.586,4.868c-8.157,1.654-16.623,3.333-25.617,5.058l-2.025-0.099
								C655.243,124.567,645.764,126.495,635.904,128.5z M546.679,146.609c-8.681,1.758-17.485,3.541-26.433,5.353
								c0.875-0.166,1.687-0.321,2.602-0.495l-26.041,5.504c16.084-2.959,26.759-4.506,4.349,0.142
								c1.852-0.568-4.761,0.476,3.024-1.17c-15.107,2.663-48.182,8.858-39.431,7.893c28.787-6.352,6.92-0.401,29.546-5.363
								c-12.103,2.862-24.227,5.018-35.702,7.486c11.912-2.745-2.97-0.345-21.017,2.998c-7.816,1.653-29.053,5.7-42.043,8.445
								c4.73-0.468-6.562,2.008,14.686-2.042c-7.765,1.643-19.798,4.096-33.343,6.516c5.338-1.125,14.687-3.014,14.008-3.047
								c-8.792,1.301-18.99,3.319-24.654,4.249c-4.485,0.904-9.011,1.816-13.414,2.703c1.322-0.219,2.473-0.393,3.296-0.489
								l-14.841,3.314c19.829-4.103,9.225-1.596,9.019-1.287c0.433-0.622-12.804,2.44-19.602,3.791l14.881-2.35
								c-7.086,1.674-25.29,4.547-21.454,4.357c31.388-5.927,43.421-8.383,71.735-14.102l-11.59,1.832
								c31.924-6.57,19.869-3.139,55.751-10.194c7.421-1.656,20.912-4.307,32.621-6.66c11.709-2.353,21.636-4.407,21.93-4.868
								c-4.453,1.119,22.481-3.689,34.71-6.452c13.453-3.374,54.54-11.527,42.025-9.411c-11.108,2.168-25.98,5.489-34.999,6.776
								l21.516-4.371l-14.213,2.384C550.934,146.76,550.15,146.52,546.679,146.609z M108.019,315.435
								c-0.148,0.189-0.342,0.437-0.523,0.667c0.198-0.257,0.389-0.506,0.574-0.747L108.019,315.435z"/>
							<path fill="#6C9CFF" d="M1510.552,580.533c-3.556,5.22-12.732,17.848-10.626,15.598
								C1499.358,596.187,1516.227,573.5,1510.552,580.533z"/>
							<path fill="#6C9CFF" d="M1499.269,595.41c-0.562,0.95,0.019,0.427-4.076,6.109l11.22-15.686L1499.269,595.41z"/>
							<path fill="#6C9CFF" d="M1490.447,612.333c2.189,9.707,3.556,15.862,6.474,31.197c0.086,5.954-5.109-25.042-7.397-31.809
								c5.305,28.117,7.854,36.571,12.384,59.667c-0.888-5.768-3.519-20.358-6.044-33.594
								C1493.337,624.561,1490.916,612.68,1490.447,612.333z"/>
							<path fill="#6C9CFF" d="M1491.825,598.487c-1.386,1.963-2.771,3.927-4.188,5.883l2.354,11.312l-0.236-1.554
								c-0.666-3.244-1.332-6.488-1.954-9.723l4.999-7.164L1491.825,598.487z"/>
							<path fill="#6C9CFF" d="M1620.557,318.634c-0.604-1.341-6.823-9.069-10.085-13.27
								C1613.056,308.831,1616.628,313.716,1620.557,318.634z"/>
							<path fill="#6C9CFF" d="M1032.337,973.632l117.892-28.899C1116.307,953.048,1084.988,960.725,1032.337,973.632z"/>
							<path fill="#6C9CFF" d="M1271.166,161.683c32.041,5.969,46.358,8.204,78.974,14.453
								c-42.726-9.042-56.795-10.092-92.646-17.802L1271.166,161.683z"/>
							<path fill="#6C9CFF" d="M1282.945,161.352c5.184,1.64-24.815-4.134-20.258-2.784c21.583,4.079,10.149,1.396,29.7,5.282
								L1282.945,161.352z"/>
							<polygon fill="#6C9CFF" points="1425.934,199.686 1416.174,198.098 1424.004,199.514 							"/>
							<polygon fill="#6C9CFF" points="1137.075,133.311 1140.636,133.868 1124.636,130.535 							"/>
							<path fill="#6C9CFF" d="M1144.197,134.423l-3.562-0.555L1144.197,134.423z"/>
							<polygon fill="#6C9CFF" points="1413.219,198.532 1427.607,201.485 1434.791,202.607 							"/>
							<path fill="#6C9CFF" d="M1286.629,170.372l12.931,2.335C1296.994,172.243,1279.402,168.538,1286.629,170.372z"/>
							<polygon fill="#6C9CFF" points="1039.185,113.857 1023.451,111.013 1025.042,111.386 1040.725,114.221 							"/>
							<path fill="#6C9CFF" d="M1185.374,152.243c8.816,2.208-25.751-4.918-7.502-0.917
								C1194.19,154.45,1187.621,152.913,1185.374,152.243z"/>
							<path fill="#6C9CFF" d="M997.814,108.262c-1.936-0.952-3.981-1.939-5.969-2.858
								C994.197,106.53,996.171,107.475,997.814,108.262z"/>
							<path fill="#6C9CFF" d="M997.814,108.262c4.745,2.371,9.49,4.742,13.375,6.683c1.506,0.292,2.674,0.507,3.843,0.702
								c-1.468-0.321-2.776-0.607-3.8-0.831c-1.367-0.691-2.57-1.3-3.688-1.865c-1.105-0.544-2.126-1.045-3.137-1.542
								C1002.375,110.439,1000.382,109.487,997.814,108.262z"/>
							<path fill="#6C9CFF" d="M926.188,73.157l5.65,2.816c-5.89-2.638-3.132-1.319,2.118,1.054
								c6.011,2.938,5.737,2.638,6.497,2.898c1.229,0.538,2.447,1.072,3.772,1.652c-1.879-0.853-3.567-1.619-4.998-2.269
								C929.929,74.731,924.244,71.961,926.188,73.157z"/>
							<path fill="#6C9CFF" d="M654.018,118.967c22.914-4.313,28.848-5.39,27.675-4.788c21.731-4.141,18.273-4.104,31.299-6.806
								C688.475,112.25,683.386,113.077,654.018,118.967z"/>
							<path fill="#6C9CFF" d="M712.992,107.373l0.108-0.024l6.007-2.984c-1.413,0.694-2.667,1.311-3.803,1.87
								c-1.053,0.522-2.51,1.247-2.206,1.107C713.057,107.354,713.024,107.363,712.992,107.373z"/>
							<polygon fill="#6C9CFF" points="1008.086,117.884 994.837,111.99 999.644,114.268 							"/>
							<path fill="#6C9CFF" d="M620.027,125.443c4.247-0.809,11.045-2.158,14.409-2.69
								C635.588,122.153,615.79,126.25,620.027,125.443z"/>
							<path fill="#6C9CFF" d="M709.646,115.17c0.781-0.077,2.991-0.474,5.754-0.999c4.944-2.415,12.071-5.895,15.692-7.663
								c-2.894,1.404-5.628,2.634-8.255,3.82c-1.311,0.598-2.596,1.183-3.866,1.761c-1.242,0.575-2.569,1.207-3.679,1.76
								c-0.865,0.174-1.837,0.382-2.788,0.603C711.552,114.672,710.601,114.91,709.646,115.17z"/>
							<path fill="#6C9CFF" d="M554.677,139.788c4.248-0.809,10.819-1.847,8.051-0.996
								C568.858,137.407,577.077,135.14,554.677,139.788z"/>
							<polygon fill="#6C9CFF" points="667.819,123.302 671.11,122.784 686.722,119.484 							"/>
							<path fill="#6C9CFF" d="M725.239,115.127c5.922-3.094,3.832-2.274,0.3-0.749c-1.764,0.767-3.896,1.694-5.559,2.417
								c-0.895,0.377-1.664,0.701-2.193,0.924c-0.734,0.311-1.135,0.458-1.063,0.374c-0.047,0.006-0.038,0-0.003-0.01
								c0.089-0.076,0.394-0.257,0.953-0.563c0.414-0.224,1.015-0.549,1.835-0.993c1.522-0.807,3.874-2.019,7.294-3.752
								c-4.44,2.134-7.787,3.743-10.215,4.91c-2.645,0.517-4.454,0.871-5.649,1.104c-1.098,0.227-1.628,0.354-1.797,0.417
								c-0.337,0.128,0.775,0.002,1.7-0.085c1.851-0.175,2.956-0.197-9.769,2.266c3.148-0.572,5.999-1.091,8.541-1.553
								c2.765-0.476,5.195-0.893,7.277-1.251c0.558-0.259,1.097-0.508,1.616-0.749c0.351-0.157,0.689-0.308,1.013-0.453
								c0.651-0.286,1.249-0.549,1.792-0.788c1.089-0.473,1.967-0.843,2.627-1.109C725.258,114.954,725.708,114.835,725.239,115.127
								z"/>
							<path fill="#6C9CFF" d="M701.071,121.388c-2.458,0.47-5.121,0.979-8.01,1.532
								C696.259,122.309,698.84,121.815,701.071,121.388z"/>
							<path fill="#6C9CFF" d="M452.705,167.263c2.545-0.563,4.284-0.949,5.89-1.304
								C456.59,166.403,454.679,166.826,452.705,167.263z"/>
							<path fill="#6C9CFF" d="M608.974,139.808l26.268-5.816c-17.546,3.883-61.904,12.551-59.015,12.648
								c14.388-2.686,31.635-6.243,38.681-7.91L608.974,139.808z"/>
							<path fill="#6C9CFF" d="M303.747,187.604l11.354-2.489l-14.254,2.717C304.944,187.128,297.659,189.043,303.747,187.604z"/>
							<path fill="#6C9CFF" d="M298.09,188.358l2.756-0.526C300.237,187.935,299.363,188.1,298.09,188.358z"/>
							<path fill="#6C9CFF" d="M502.564,157.168c8.536-1.626,15.355-2.981,23.11-4.62
								C522.424,153.061,501.156,157.113,502.564,157.168z"/>
							<polygon fill="#6C9CFF" points="223.628,204.274 242.428,200.475 221.9,204.548 							"/>
							<polygon fill="#6C9CFF" points="151.096,255.446 148.989,257.999 139.514,270.773 141.653,268.179 							"/>
							<path fill="#6C9CFF" d="M252.921,210.464c12.773-2.433,22.626-4.961,19.264-4.428l-24.734,4.875
								c6.386-0.73,6.86-1.36,21.227-4.044L252.921,210.464z"/>
							<path fill="#6C9CFF" d="M185.2,833.401c0.744-5.594,6.227-32.62,6.823-33.976c-0.572,3.664-3.307,18.363-1.303,9.186
								l3.36-21.574c6.079-28.382-3.146,21.861-5.604,35.985c5.776-28.996,6.915-37.702,12.948-68.568
								c-1.853,9.089-3.182,14.804-4.298,19.577c-0.785,0.935,5.091-27.775,9.062-48.345c-2.81,13.042-1.542,5.428,0.092-4.152
								c0.318-1.72,0.507-2.866,0.627-3.686c0.188-1.115,0.367-2.169,0.55-3.253l-0.481,2.467c-0.031-0.188-0.215,0.342-0.67,2.098
								c-3.202,17.285-6.264,30.384-8.442,41.489c3.087-10.789-7.171,37.865-9.609,51.886l-3.057,16.141l-1.177,6.031
								c-0.34,1.192-0.135-0.549,1.476-9.781c-0.32,1.875-0.861,4.808-1.486,8.138c-1.076,5.616-2.281,11.905-3.401,17.749
								c3.528,0.841,6.915,1.648,9.975,2.378c2.467,0.578,4.669,1.094,6.458,1.513c2.292,0.514,3.53,0.758,2.947,0.535
								l57.847,14.007c1.792,0.476,3.581,0.959,4.897,1.35c2.019,0.427,2.366,0.46,2.113,0.349l252.033,61.027
								c-12.4-3.148-23.128-5.872-35.914-9.118c19.391,4.044-20.994-5.207-15.205-4.425c8.7,1.883,21.341,5.019,28.846,6.988
								c2.88,0.385-7.801-2.482-6.474-2.535c-31.695-8.077-36.902-7.839-67.924-15.587c1.317-0.056,10.998,1.962-9.354-2.92
								l5.187,1.177c-32.666-7.498-25.181-6.954-45.919-10.95l0.663-0.382c-14.867-3.195-43.611-10.159-59.827-14.015l0.99,0.135
								c-45.583-10.428-25.538-6.059-76.624-18.181l23.628,5.094c-17.542-4.514-21.668-4.825-34.289-7.955
								c0.93,0.12-1.91-0.965,10.048,1.835l-23.236-5.271l-11.618-2.636c-5.634-1.306-11.269-2.611-16.631-4.091l2.309-13.043
								l1.309-7.926C189.371,813.17,185.874,831.122,185.2,833.401z"/>
							<path fill="#6C9CFF" d="M201.423,754.454c0.674-3.304,1.42-7.062,2.268-11.504
								C202.847,747.233,202.12,750.921,201.423,754.454z"/>
							<path fill="#6C9CFF" d="M534.585,936.258l-17.705-4.287C522.356,933.331,528.072,934.727,534.585,936.258z"/>
							<path fill="#6C9CFF" d="M217.804,664.614c-2.386,10.788,1.211-8.19,1.382-10.12l-7.577,38.831
								c0.234-0.136-0.294,3.751,0.041,3.006L217.804,664.614z"/>
							<path fill="#6C9CFF" d="M209.037,704.493c-0.118,1.342-0.797,5.477-1.579,10.103l4.151-21.271
								c-0.088,0.053-0.282,0.668-0.679,2.358C210.533,697.374,209.934,700.14,209.037,704.493z"/>
							<polygon fill="#6C9CFF" points="220.479,702.462 219.154,709.339 217.276,719.768 							"/>
							<path fill="#6C9CFF" d="M198.597,809.799c1.906-8.15,4.72-23.772,5.662-28.997
								C200.761,798.754,202.166,790.953,198.597,809.799z"/>
							<polygon fill="#6C9CFF" points="206.17,788.248 202.961,805.584 203.335,803.982 							"/>
							<path fill="#6C9CFF" d="M665.931,965.96c2.811,0.669,5.541,1.319,8.382,1.996
								C670.474,967.042,667.968,966.445,665.931,965.96z"/>
							<path fill="#6C9CFF" d="M518.788,930.811c40.732,10.482-26.896-6.014-14.234-2.164l22.301,5.147l-1.94-0.262l27.142,6.511
								c-5.484-1.688-9.661-2.722-8.363-2.784c36.178,8.917,11.314,3.188,37.771,10.076l40.491,9.747l-3.302-0.688
								c3.411,0.818,4.927,1.139,6.111,1.365l136.456,32.842c24.885,5.733-13.571-3.966,4.86-0.052
								c-28.765-6.97-71.417-17.709-74.031-17.593c0.991,0.136,2.94,0.402-2.869-1.095l-16.777-3.449l15.817,4.03
								c-16.868-3.474-70.854-16.696-80.535-19.425c30.766,7.248,15.521,2.812,58.223,13.565c-1.879-0.646-9.637-2.86,0.022-0.623
								C615.74,954.012,570.876,942.796,518.788,930.811z"/>
							<path fill="#6C9CFF" d="M1024.398,974.968l-0.382,0.16C1024.914,974.875,1025.203,974.777,1024.398,974.968z"/>
							<path fill="#6C9CFF" d="M1007.548,978.96l-24.271,6.618l38.091-9.292l2.649-1.158c-3.338,0.94-16.638,4.425-21.862,5.49
								L1007.548,978.96z"/>
							<path fill="#6C9CFF" d="M955.001,992.876c19.628-4.977,18.421-5.291,7.623-2.95c18.006-4.646,9.683-1.695,21.979-5.316
								c-0.507-0.314-22.721,5.326-27.82,6.643L955.001,992.876z"/>
							<polygon fill="#6C9CFF" points="806.823,1001.034 812.416,1002.138 798.797,998.771 							"/>
							<path fill="#6C9CFF" d="M812.416,1002.138l13.517,3.345c-0.893-0.404-1.777-0.8-3.956-1.456L812.416,1002.138z"/>
							<path fill="#6C9CFF" d="M862.428,1014.503l0.944,0.233c0.316-0.024,0.633-0.137,0.951-0.201
								c0.638-0.151,1.278-0.305,1.925-0.458c0.817-0.193,1.647-0.39,2.491-0.589c1.522-0.36,3.095-0.732,4.729-1.119
								c3.268-0.78,6.783-1.62,10.643-2.543c0,0-4.951,1.177-9.901,2.353c-2.475,0.588-4.95,1.176-6.807,1.617
								c-1.442,0.345-2.645,0.633-3.485,0.834c-0.119,0.028-0.231,0.055-0.337,0.08c-0.053,0.013-0.104,0.025-0.153,0.037
								c-0.049-0.012-0.097-0.022-0.143-0.034c-0.184-0.045-0.34-0.083-0.467-0.114
								C862.563,1014.536,862.428,1014.503,862.428,1014.503z"/>
							<path fill="#6C9CFF" d="M845.962,1010.357l0.44,0.186l16.026,3.96C856.539,1013.021,851.256,1011.69,845.962,1010.357z"/>
							<path fill="#6C9CFF" d="M825.933,1005.482c2.101,0.934,4.572,1.979,24.166,6.611l-3.696-1.551L825.933,1005.482z"/>
							<polygon fill="#6C9CFF" points="258.042,856.753 273.573,860.277 271.95,859.818 256.429,856.297 							"/>
							<path fill="#6C9CFF" d="M347.247,878.764c3.847,0.838,6.764,1.472,9.414,2.049
								C352.621,879.88,349.399,879.17,347.247,878.764z"/>
							<path fill="#6C9CFF" d="M414.292,892.111c18.104,4.816-25.241-5.553,8.425,2.797c2.88,1.097-13.039-2.249-28.867-6.283
								c1.348-0.048,15.521,3.521,5.851,0.796c-10.64-2.146-14.581-3.396-11.038-1.973c-17.815-3.966-19.881-4.065-32.002-6.636
								c21.495,4.961,66.375,16.42,93.749,22.33c15.153,2.994,6.269-0.086,6.555-0.997
								C454.758,901.38,415.905,891.853,414.292,892.111z"/>
							<path fill="#6C9CFF" d="M385.874,884.244c-8.414-2.088-10.997-2.675-16.184-3.851
								C371.007,881.048,379.063,882.608,385.874,884.244z"/>
							<path fill="#6C9CFF" d="M577.788,938.146c1.64,0.259,16.921,3.79,13.7,2.768l-23.147-5.435
								C573.759,936.816,575.632,937.44,577.788,938.146z"/>
							<path fill="#6C9CFF" d="M558.189,933.095l10.151,2.385C565.81,934.854,562.672,934.112,558.189,933.095z"/>
							<path fill="#6C9CFF" d="M578.867,938.495c-0.36-0.116-0.68-0.22-1.079-0.349C577.456,938.096,577.51,938.14,578.867,938.495z
								"/>
							<path fill="#6C9CFF" d="M920.438,1001.169c-0.265,0.334,9.996-2.313,15.146-3.643
								C931.378,998.523,925.456,999.871,920.438,1001.169z"/>
							<path fill="#6C9CFF" d="M1307.823,906.211l9.146-2.002C1313.724,904.867,1312.061,905.207,1307.823,906.211z"/>
							<path fill="#6C9CFF" d="M1446.328,865.287c0.252-0.114,0.914-0.317,1.81-0.576
								C1447.24,864.962,1446.619,865.157,1446.328,865.287z"/>
							<path fill="#6C9CFF" d="M1448.138,864.711c6.166-1.719,25.435-6.041,32.255-8.035l-0.851,0.311l12.794-3.304
								C1480.307,856.629,1455.033,862.713,1448.138,864.711z"/>
						</g>
					</g>
				</g>
			</g>
		</g>
	</g>
	<polygon fill="none" stroke="#698CDC" stroke-width="4" stroke-miterlimit="10" points="1592.188,871.111 863.5,1047.74 
		134.812,871.111 185.5,611.674 3.5,364.134 134.812,192.423 703.5,80.948 863.5,2.26 1023.5,80.948 1592.188,192.423 
		1721.5,364.134 1542.322,611.674 	"/>
</g>
</svg>
